<?xml version="1.0" encoding="UTF-8"?>
<svg width="362px" height="102px" viewBox="0 0 362 102" version="1.1" xmlns="http://www.w3.org/2000/svg" xmlns:xlink="http://www.w3.org/1999/xlink">
    <!-- Generator: Sketch 42 (36781) - http://www.bohemiancoding.com/sketch -->
    <title>logo-it</title>
    <desc>Created with Sketch.</desc>
    <defs></defs>
    <g id="Page-1" stroke="none" stroke-width="1" fill="none" fill-rule="evenodd">
        <g id="logo-it" fill-rule="nonzero">
            <polygon id="Shape" fill="#4A4A49" points="224.3 1.5 218.8 32.9 211 1.5 196.8 1.5 189 33 183.5 1.5 167.9 1.5 179.4 58 196.8 58 203.9 28.7 210.9 58 228.3 58 239.8 1.5"></polygon>
            <polygon id="Shape" fill="#4A4A49" points="258.3 36.1 276.7 36.1 276.7 23.4 258.3 23.4 258.3 14.2 277.6 14.2 277.6 1.5 243.3 1.5 243.3 58 277.6 58 277.6 45.3 258.3 45.3"></polygon>
            <path d="M317.3,34.1 C323.1,31.4 327.2,25.5 327.2,18.6 C327.2,9.1 319.5,1.5 310,1.5 L283,1.5 L283,58 L298,58 L298,35.8 L301.3,35.8 L313,58 L330,58 L317.3,34.1 Z M304.7,25.4 L298,25.4 L298,11.9 L304.7,11.9 C308.5,11.9 311.5,14.9 311.5,18.7 C311.5,22.4 308.4,25.4 304.7,25.4 Z" id="Shape" fill="#4A4A49"></path>
            <path d="M93,1.5 L72.5,1.5 L72.5,58 L87.1,58 L87.1,40.6 L93.3,40.6 C104.1,40.6 112.8,31.5 112.8,20.7 C112.9,9.8 103.8,1.5 93,1.5 Z M91.3,28 L87.2,28 L87.2,13.2 L91.2,13.2 C95.3,13.2 98.8,16.4 98.8,20.5 C98.7,24.6 95.4,28 91.3,28 Z" id="Shape" fill="#4A4A49"></path>
            <g id="Group" transform="translate(32.000000, 1.000000)" fill="#E9484D">
                <polygon id="Shape" points="0.8 57 35.1 57 35.1 44.3 15.8 44.3 15.8 39.7 0.8 39.7"></polygon>
                <polygon id="Shape" points="15.8 13.2 35.1 13.2 35.1 0.5 0.8 0.5 0.8 17.7 15.8 17.7"></polygon>
                <polygon id="Shape" points="0.8 22.4 0.8 35 34.2 35 34.2 22.4 15.8 22.4 15.8 22.4"></polygon>
            </g>
            <path d="M19.7,34.1 C25.5,31.4 29.6,25.5 29.6,18.6 C29.6,9.1 21.9,1.5 12.4,1.5 L0,1.5 L0,11.8 L7.1,11.8 C10.9,11.8 13.9,14.8 13.9,18.6 C13.9,22.4 10.8,25.4 7.1,25.4 L0,25.4 L0,35.7 L3.6,35.7 L15.5,58 L32.5,58 L19.7,34.1 Z" id="Shape" fill="#E9484D"></path>
            <path d="M169.3,29.7 C169.2,23.8 167.9,17.2 165,12.7 C159.9,5 151.8,0.1 142.2,0 L142.2,0 L142.1,0 L142,0 L142,0 C132.4,0.1 124.2,5 119.2,12.7 C116.3,17.2 114.9,23.8 114.9,29.7 L114.9,29.7 C115,35.6 116.3,42.2 119.2,46.7 C124.2,54.4 132.4,59.3 142,59.4 L142,59.4 L142.1,59.4 L142.2,59.4 L142.2,59.4 C151.8,59.3 160,54.4 165,46.7 C167.9,42.2 169.2,35.6 169.3,29.7 Z M142.1,44.8 C134,44.8 129.5,38.8 129.5,30.6 L129.5,29.8 C129.5,21.6 134,15.6 142.1,15.6 C150.2,15.6 154.6,21.6 154.6,29.8 L154.6,30.6 C154.6,38.9 150.2,44.8 142.1,44.8 Z" id="Shape" fill="#4A4A49"></path>
            <g id="Group" transform="translate(72.000000, 69.000000)" fill="#4A4A49">
                <polygon id="Shape" points="0.6 24.5 0.6 3.1 3.5 3.1 3.5 22 11.2 22 11.2 24.5"></polygon>
                <path d="M10.2,9.4 L9,8.3 C11,6.1 11.1,4.7 10.4,3.8 C9.5,2.7 10.2,0.9 11.8,0.9 C14,0.9 15.1,4.9 10.2,9.4 Z" id="Shape"></path>
                <path d="M27.7,16.5 L17.4,16.5 C17.3,20.6 19,22.4 22.4,22.4 C23.9,22.4 25.5,22.1 26.9,21.5 L27.3,23.8 C25.7,24.4 23.8,24.8 21.8,24.8 C17,24.8 14.4,22.3 14.4,16.7 C14.4,12 17,8.5 21.5,8.5 C25.9,8.5 27.7,11.4 27.7,15 C27.8,15.3 27.7,15.9 27.7,16.5 Z M21.3,10.6 C19.2,10.6 17.8,12.1 17.4,14.5 L24.8,14.5 C24.9,12.1 23.6,10.6 21.3,10.6 Z" id="Shape"></path>
                <path d="M42.8,24.5 L42.8,14.3 C42.8,12.1 42.2,10.8 40.1,10.8 C37.5,10.8 35.6,13.5 35.6,16.9 L35.6,24.4 L32.7,24.4 L32.7,11 C31.9,10.9 30.9,10.7 29.9,10.7 L29.9,9 C31.5,8.8 33.7,8.7 35.4,8.8 C35.4,9.7 35.3,11.2 35.1,12.1 L35.2,12.1 C36.1,9.9 38.1,8.5 40.7,8.5 C44.3,8.5 45.5,10.8 45.5,13.5 L45.5,24.5 L42.8,24.5 Z" id="Shape"></path>
                <path d="M62.8,16.5 L52.5,16.5 C52.4,20.6 54.1,22.4 57.5,22.4 C59,22.4 60.6,22.1 62,21.5 L62.4,23.8 C60.8,24.4 58.9,24.8 56.9,24.8 C52.1,24.8 49.5,22.3 49.5,16.7 C49.5,12 52.1,8.5 56.6,8.5 C61,8.5 62.8,11.4 62.8,15 C62.9,15.3 62.9,15.9 62.8,16.5 Z M56.5,10.6 C54.4,10.6 53,12.1 52.6,14.5 L60,14.5 C60.1,12.1 58.7,10.6 56.5,10.6 Z" id="Shape"></path>
                <path d="M75.8,11.2 C72.3,10.5 70.7,13 70.7,18.1 L70.7,24.4 L67.8,24.4 L67.8,11 C67,10.9 66,10.7 65,10.7 L65,9 C66.6,8.8 68.8,8.7 70.5,8.8 C70.5,9.8 70.4,11.2 70.2,12.5 L70.3,12.5 C71,10.3 72.6,8.1 75.9,8.5 L75.8,11.2 Z" id="Shape"></path>
                <path d="M83.4,32.5 C81.7,32.5 80,32.2 78.8,31.9 L79.1,29.2 C80.4,29.7 82.1,30 83.6,30 C86.9,30 88.7,28.8 88.7,25.2 L88.7,24 C88.7,23 88.7,22.1 88.9,21.3 L88.8,21.3 C87.9,23.4 86,24.8 83.7,24.8 C80,24.8 77.8,22.3 77.8,17.4 C77.8,11.9 80.9,8.5 86.1,8.5 C88,8.5 89.8,8.7 91.4,8.9 L91.4,25.7 C91.5,28.6 90.1,32.5 83.4,32.5 Z M88.7,11 C87.8,10.8 86.8,10.7 85.9,10.7 C82.9,10.7 80.9,12.5 80.9,17 C80.9,20.4 82,22.3 84.4,22.3 C87.3,22.3 88.7,19 88.7,16.2 L88.7,11 Z" id="Shape"></path>
                <path d="M97.7,24.5 L97.7,11 C96.9,10.9 95.9,10.7 94.9,10.7 L94.9,9 C96.5,8.8 98.7,8.7 100.5,8.8 L100.5,24.6 L97.7,24.6 L97.7,24.5 Z M99.2,5.6 C98.2,5.6 97.3,4.8 97.3,3.8 C97.3,2.8 98.2,1.9 99.2,1.9 C100.2,1.9 101.1,2.7 101.1,3.8 C101.1,4.7 100.2,5.6 99.2,5.6 Z" id="Shape"></path>
                <path d="M114.4,24.5 C114.4,23.4 114.4,22.2 114.6,21.4 L114.5,21.4 C113.7,23.3 111.7,24.8 109.1,24.8 C106.5,24.8 104.7,23.2 104.7,20.6 C104.7,17.2 108.2,15.1 114.2,15.1 L114.2,14.1 C114.2,11.9 113.3,10.7 110.7,10.7 C109.2,10.7 107.3,11.2 106,11.9 L105.5,9.5 C107.1,8.9 109.1,8.4 111,8.4 C115.6,8.4 116.9,10.5 116.9,13.7 L116.9,22.3 C117.7,22.4 118.7,22.6 119.7,22.6 L119.7,24.3 C118.2,24.4 116.1,24.5 114.4,24.5 Z M114.2,17.1 C109,17.1 107.5,18.6 107.5,20.1 C107.5,21.5 108.4,22.5 109.9,22.5 C112.5,22.5 114.2,20 114.2,17.5 L114.2,17.1 L114.2,17.1 Z" id="Shape"></path>
                <path d="M135.5,24.7 C131.7,24.7 128.6,22.9 128.6,17.1 C128.6,12 131.2,8.4 136.3,8.4 C137.7,8.4 139.1,8.7 140.2,9.1 L139.7,11.5 C138.7,11.1 137.4,10.8 136.1,10.8 C133.2,10.8 131.7,13.2 131.7,16.7 C131.7,19.8 132.7,22.2 136.2,22.2 C137.5,22.2 138.8,21.9 139.9,21.4 L140.3,23.8 C138.8,24.4 137.1,24.7 135.5,24.7 Z" id="Shape"></path>
                <path d="M154,24.5 L154,14.3 C154,12.1 153.4,10.8 151.3,10.8 C148.7,10.8 146.8,13.5 146.8,16.9 L146.8,24.4 L144,24.4 L144,3.6 C143.2,3.5 142.2,3.3 141.2,3.3 L141.2,1.6 C142.8,1.4 145,1.3 146.8,1.4 L146.8,8.9 C146.8,9.9 146.7,11.2 146.5,12 L146.6,12 C147.5,9.8 149.5,8.5 152.1,8.5 C155.7,8.5 156.8,10.8 156.8,13.5 L156.8,24.5 L154,24.5 L154,24.5 Z" id="Shape"></path>
                <path d="M174.1,16.5 L163.8,16.5 C163.7,20.6 165.4,22.4 168.8,22.4 C170.3,22.4 171.9,22.1 173.3,21.5 L173.7,23.8 C172.1,24.4 170.2,24.8 168.2,24.8 C163.4,24.8 160.8,22.3 160.8,16.7 C160.8,12 163.4,8.5 167.9,8.5 C172.3,8.5 174.1,11.4 174.1,15 C174.2,15.3 174.1,15.9 174.1,16.5 Z M167.7,10.6 C165.6,10.6 164.2,12.1 163.8,14.5 L171.2,14.5 C171.3,12.1 170,10.6 167.7,10.6 Z" id="Shape"></path>
                <path d="M190.1,24.7 C186.9,24.7 185.9,23.4 185.9,20 L185.9,10.9 L182.7,10.9 L182.7,8.7 L185.9,8.7 L185.9,3.6 L188.8,2.8 L188.8,8.7 L193.2,8.7 L193.2,10.9 L188.8,10.9 L188.8,18.9 C188.8,21.5 189.3,22.2 191.1,22.2 C191.8,22.2 192.5,22.1 193.1,21.9 L193.4,24.2 C192.3,24.6 191.1,24.7 190.1,24.7 Z" id="Shape"></path>
                <path d="M197.8,24.5 L197.8,11 C197,10.9 196,10.7 195,10.7 L195,9 C196.6,8.8 198.8,8.7 200.6,8.8 L200.6,24.6 L197.8,24.6 L197.8,24.5 Z M199.2,5.6 C198.2,5.6 197.3,4.8 197.3,3.8 C197.3,2.8 198.2,1.9 199.2,1.9 C200.2,1.9 201.1,2.7 201.1,3.8 C201.1,4.7 200.3,5.6 199.2,5.6 Z" id="Shape"></path>
                <path d="M215.5,24.7 C214.3,24.7 213,24.6 212,24.3 L212.3,21.8 C213.3,22.2 214.6,22.4 215.8,22.4 C217.8,22.4 219.2,21.5 219.2,20 C219.2,16.5 211.9,18.7 211.9,13.1 C211.9,10.4 214,8.4 218.2,8.4 C219.2,8.4 220.3,8.5 221.2,8.7 L221,11 C220.1,10.7 219,10.5 217.9,10.5 C215.8,10.5 214.8,11.4 214.8,12.8 C214.8,16.3 222.2,14.3 222.2,19.6 C222.1,22.6 219.6,24.7 215.5,24.7 Z" id="Shape"></path>
                <path d="M238.3,16.5 L228,16.5 C227.9,20.6 229.6,22.4 233,22.4 C234.5,22.4 236.1,22.1 237.5,21.5 L237.9,23.8 C236.3,24.4 234.4,24.8 232.4,24.8 C227.6,24.8 225,22.3 225,16.7 C225,12 227.6,8.5 232.1,8.5 C236.5,8.5 238.3,11.4 238.3,15 C238.4,15.3 238.3,15.9 238.3,16.5 Z M231.9,10.6 C229.8,10.6 228.4,12.1 228,14.5 L235.4,14.5 C235.5,12.1 234.2,10.6 231.9,10.6 Z" id="Shape"></path>
                <path d="M251.3,11.2 C247.8,10.5 246.2,13 246.2,18.1 L246.2,24.4 L243.3,24.4 L243.3,11 C242.5,10.9 241.5,10.7 240.5,10.7 L240.5,9 C242.1,8.8 244.3,8.7 246,8.8 C246,9.8 245.9,11.2 245.7,12.5 L245.8,12.5 C246.5,10.3 248.1,8.1 251.4,8.5 L251.3,11.2 Z" id="Shape"></path>
                <path d="M261.5,24.5 L258.6,24.5 L252.7,8.7 L255.9,8.7 L259.2,18.1 C259.5,19.1 259.9,20.1 260.1,21.1 L260.2,21.1 C260.5,20.2 260.8,19.2 261.1,18.2 L264.5,8.7 L267.6,8.7 L261.5,24.5 Z" id="Shape"></path>
                <path d="M281.8,16.5 L271.5,16.5 C271.4,20.6 273.1,22.4 276.5,22.4 C278,22.4 279.6,22.1 281,21.5 L281.4,23.8 C279.8,24.4 277.9,24.8 275.9,24.8 C271.1,24.8 268.5,22.3 268.5,16.7 C268.5,12 271.1,8.5 275.6,8.5 C280,8.5 281.8,11.4 281.8,15 C281.9,15.3 281.9,15.9 281.8,16.5 Z M275.5,10.6 C273.4,10.6 272,12.1 271.6,14.5 L279,14.5 C279.1,12.1 277.7,10.6 275.5,10.6 Z" id="Shape"></path>
                <path d="M287.1,24.7 C286,24.7 285.1,23.8 285.1,22.7 C285.1,21.6 286,20.7 287.1,20.7 C288.2,20.7 289.1,21.6 289.1,22.7 C289.1,23.8 288.2,24.7 287.1,24.7 Z" id="Shape"></path>
            </g>
        </g>
    </g>
</svg>