<?xml version="1.0" encoding="UTF-8" standalone="no"?>
<!-- Created with Inkscape (http://www.inkscape.org/) -->

<svg
   version="1.1"
   id="svg2"
   width="793.70667"
   height="377.94666"
   viewBox="0 0 793.70667 377.94666"
   xmlns="http://www.w3.org/2000/svg"
   xmlns:svg="http://www.w3.org/2000/svg">
  <defs
     id="defs6">
    <clipPath
       clipPathUnits="userSpaceOnUse"
       id="clipPath16">
      <path
         d="M 0,283.46 H 595.28 V 0 H 0 Z"
         id="path14" />
    </clipPath>
    <linearGradient
       x1="0"
       y1="0"
       x2="1"
       y2="0"
       gradientUnits="userSpaceOnUse"
       gradientTransform="matrix(39.542969,0,0,-39.542969,349.63379,98.223633)"
       spreadMethod="pad"
       id="linearGradient50">
      <stop
         style="stop-opacity:1;stop-color:#4d5051"
         offset="0"
         id="stop38" />
      <stop
         style="stop-opacity:1;stop-color:#f4f4f4"
         offset="0.35903865"
         id="stop40" />
      <stop
         style="stop-opacity:1;stop-color:#f4f4f4"
         offset="0.503067"
         id="stop42" />
      <stop
         style="stop-opacity:1;stop-color:#f4f4f4"
         offset="0.63216524"
         id="stop44" />
      <stop
         style="stop-opacity:1;stop-color:#4f4c4d"
         offset="0.993866"
         id="stop46" />
      <stop
         style="stop-opacity:1;stop-color:#4f4c4d"
         offset="1"
         id="stop48" />
    </linearGradient>
    <clipPath
       clipPathUnits="userSpaceOnUse"
       id="clipPath60">
      <path
         d="M 0,283.46 H 595.28 V 0 H 0 Z"
         id="path58" />
    </clipPath>
    <linearGradient
       x1="0"
       y1="0"
       x2="1"
       y2="0"
       gradientUnits="userSpaceOnUse"
       gradientTransform="matrix(76.591797,0,0,-76.591797,282.75098,80.477539)"
       spreadMethod="pad"
       id="linearGradient90">
      <stop
         style="stop-opacity:1;stop-color:#4d5051"
         offset="0"
         id="stop78" />
      <stop
         style="stop-opacity:1;stop-color:#f4f4f4"
         offset="0.35903865"
         id="stop80" />
      <stop
         style="stop-opacity:1;stop-color:#f4f4f4"
         offset="0.503067"
         id="stop82" />
      <stop
         style="stop-opacity:1;stop-color:#f4f4f4"
         offset="0.63216524"
         id="stop84" />
      <stop
         style="stop-opacity:1;stop-color:#4f4c4d"
         offset="0.993866"
         id="stop86" />
      <stop
         style="stop-opacity:1;stop-color:#4f4c4d"
         offset="1"
         id="stop88" />
    </linearGradient>
    <clipPath
       clipPathUnits="userSpaceOnUse"
       id="clipPath100">
      <path
         d="M 0,283.46 H 595.28 V 0 H 0 Z"
         id="path98" />
    </clipPath>
    <linearGradient
       x1="0"
       y1="0"
       x2="1"
       y2="0"
       gradientUnits="userSpaceOnUse"
       gradientTransform="matrix(50.002502,0,0,-50.002502,235.7627,97.783203)"
       spreadMethod="pad"
       id="linearGradient418">
      <stop
         style="stop-opacity:1;stop-color:#a7a5a6"
         offset="0"
         id="stop402" />
      <stop
         style="stop-opacity:1;stop-color:#4d5051"
         offset="0.05527076"
         id="stop404" />
      <stop
         style="stop-opacity:1;stop-color:#4d5051"
         offset="0.0749969"
         id="stop406" />
      <stop
         style="stop-opacity:1;stop-color:#f4f4f4"
         offset="0.3805103"
         id="stop408" />
      <stop
         style="stop-opacity:1;stop-color:#f4f4f4"
         offset="0.503067"
         id="stop410" />
      <stop
         style="stop-opacity:1;stop-color:#f4f4f4"
         offset="0.63216524"
         id="stop412" />
      <stop
         style="stop-opacity:1;stop-color:#4f4c4d"
         offset="0.993866"
         id="stop414" />
      <stop
         style="stop-opacity:1;stop-color:#4f4c4d"
         offset="1"
         id="stop416" />
    </linearGradient>
    <linearGradient
       x1="0"
       y1="0"
       x2="1"
       y2="0"
       gradientUnits="userSpaceOnUse"
       gradientTransform="matrix(50.002487,0,0,-50.002487,235.5127,127.1084)"
       spreadMethod="pad"
       id="linearGradient446">
      <stop
         style="stop-opacity:1;stop-color:#a7a5a6"
         offset="0"
         id="stop434" />
      <stop
         style="stop-opacity:1;stop-color:#f4f4f4"
         offset="0.21471704"
         id="stop436" />
      <stop
         style="stop-opacity:1;stop-color:#f4f4f4"
         offset="0.503067"
         id="stop438" />
      <stop
         style="stop-opacity:1;stop-color:#f4f4f4"
         offset="0.76616248"
         id="stop440" />
      <stop
         style="stop-opacity:1;stop-color:#4f4c4d"
         offset="0.993866"
         id="stop442" />
      <stop
         style="stop-opacity:1;stop-color:#4f4c4d"
         offset="1"
         id="stop444" />
    </linearGradient>
    <clipPath
       clipPathUnits="userSpaceOnUse"
       id="clipPath456">
      <path
         d="M 0,283.46 H 595.28 V 0 H 0 Z"
         id="path454" />
    </clipPath>
    <linearGradient
       x1="0"
       y1="0"
       x2="1"
       y2="0"
       gradientUnits="userSpaceOnUse"
       gradientTransform="matrix(191.49902,0,0,-191.49902,227.17773,53.985352)"
       spreadMethod="pad"
       id="linearGradient484">
      <stop
         style="stop-opacity:1;stop-color:#80888a"
         offset="0"
         id="stop474" />
      <stop
         style="stop-opacity:1;stop-color:#f4f4f4"
         offset="0.35903865"
         id="stop476" />
      <stop
         style="stop-opacity:1;stop-color:#f4f4f4"
         offset="0.503067"
         id="stop478" />
      <stop
         style="stop-opacity:1;stop-color:#f4f4f4"
         offset="0.71893725"
         id="stop480" />
      <stop
         style="stop-opacity:1;stop-color:#80888a"
         offset="1"
         id="stop482" />
    </linearGradient>
    <clipPath
       clipPathUnits="userSpaceOnUse"
       id="clipPath494">
      <path
         d="M 0,283.46 H 595.28 V 0 H 0 Z"
         id="path492" />
    </clipPath>
  </defs>
  <g
     id="g8"
     transform="matrix(1.3333333,0,0,-1.3333333,0,377.94667)">
    <g
       id="g10">
      <g
         id="g12"
         clip-path="url(#clipPath16)">
        <g
           id="g18"
           transform="translate(234.8813,52.8857)">
          <path
             d="m 0,0 c -24.66,20.573 -38.804,50.772 -38.804,82.854 0,59.467 48.382,107.849 107.849,107.849 59.469,0 107.85,-48.382 107.85,-107.849 0,-24.996 -8.746,-49.36 -24.627,-68.604 L 151.977,13.897 0.352,-0.293 Z"
             style="fill:#1b65b3;fill-opacity:1;fill-rule:nonzero;stroke:none"
             id="path20" />
        </g>
        <g
           id="g22"
           transform="translate(303.9268,244.6885)">
          <path
             d="m 0,0 c -29.101,0 -56.46,-11.333 -77.038,-31.911 -20.578,-20.578 -31.911,-47.938 -31.911,-77.038 0,-32.408 14.287,-62.915 39.199,-83.698 l 0.703,-0.586 0.911,0.085 150.715,14.105 0.91,0.085 0.582,0.705 c 16.043,19.44 24.879,44.054 24.879,69.304 0,29.1 -11.333,56.46 -31.911,77.038 C 56.461,-11.333 29.102,0 0,0 m 0,-2.2 c 58.956,0 106.75,-47.794 106.75,-106.749 0,-25.793 -9.147,-49.45 -24.376,-67.904 l -150.715,-14.105 c -23.472,19.582 -38.408,49.052 -38.408,82.009 C -106.749,-49.994 -58.955,-2.2 0,-2.2"
             style="fill:#2c3792;fill-opacity:1;fill-rule:nonzero;stroke:none"
             id="path24" />
        </g>
      </g>
    </g>
    <g
       id="g26">
      <g
         id="g28">
        <g
           id="g34">
          <g
             id="g36">
            <path
               d="m 365.676,128.89 v -5.667 l -5.665,-0.333 -0.668,5.166 -4.001,3 -5.708,-3.332 v -9.667 l 4.543,-5.5 v -8.227 l 2,-23.853 0.165,-10.254 0.512,-4.834 18.323,-1.5 14,0.668 -1.834,5.666 -2.832,41.5 2.832,6.334 v 9.167 l -2.832,3 -3.501,-2.667 v -5.333 l -7.833,0.333 v 6.333 l -3.834,3.666 z"
               style="fill:url(#linearGradient50);stroke:none"
               id="path52" />
          </g>
        </g>
      </g>
    </g>
    <g
       id="g54">
      <g
         id="g56"
         clip-path="url(#clipPath60)">
        <g
           id="g62"
           transform="translate(387.3428,70.2236)">
          <path
             d="M 0,0 -2.832,41.5 0,47.833 V 57 l -2.832,3 -3.5,-2.667 V 52 l -7.834,0.333 v 6.333 L -18,62.333 -21.666,58.666 V 53 l -5.666,-0.334 -0.668,5.167 -4,3 -5.709,-3.333 v -9.667 l 4.543,-5.5 v -8.227 l 2,-23.852 L -31,0 l 0.512,-4.834 18.322,-1.5 14,0.667 z"
             style="fill:none;stroke:#2c3792;stroke-width:0.75;stroke-linecap:butt;stroke-linejoin:miter;stroke-miterlimit:4;stroke-dasharray:none;stroke-opacity:1"
             id="path64" />
        </g>
      </g>
    </g>
    <g
       id="g66">
      <g
         id="g68">
        <g
           id="g74">
          <g
             id="g76">
            <path
               d="m 285.497,45.636 5.336,-1.067 31.181,8.844 37.329,12.351 v 35.832 l -3.832,6.251 -72.76,8.538 z"
               style="fill:url(#linearGradient90);stroke:none"
               id="path92" />
          </g>
        </g>
      </g>
    </g>
    <g
       id="g94">
      <g
         id="g96"
         clip-path="url(#clipPath100)">
        <g
           id="g102"
           transform="translate(285.0146,107.6758)">
          <path
             d="M 0,0 74.328,-6.69"
             style="fill:#656263;fill-opacity:1;fill-rule:nonzero;stroke:#2c3792;stroke-width:0.75;stroke-linecap:butt;stroke-linejoin:miter;stroke-miterlimit:10;stroke-dasharray:none;stroke-opacity:1"
             id="path104" />
        </g>
        <g
           id="g106"
           transform="translate(285.0146,116.3857)">
          <path
             d="m 0,0 70.496,-8.71 3.832,-6.69 v -34.096"
             style="fill:none;stroke:#2c3792;stroke-width:0.75;stroke-linecap:butt;stroke-linejoin:miter;stroke-miterlimit:4;stroke-dasharray:none;stroke-opacity:1"
             id="path108" />
        </g>
        <g
           id="g110"
           transform="translate(242.061,34.0879)">
          <path
             d="m 0,0 c 0.876,-0.603 1.59,-0.948 2.142,-1.037 0.552,-0.089 1.063,-0.031 1.531,0.175 0.468,0.205 0.893,0.585 1.275,1.14 0.381,0.555 0.584,1.085 0.61,1.591 C 5.582,2.374 5.455,2.859 5.175,3.324 4.895,3.789 4.302,4.328 3.397,4.941 Z m -0.497,-0.722 -2.767,-4.026 -0.327,-0.456 c -0.229,-0.333 -0.318,-0.643 -0.264,-0.93 0.052,-0.286 0.246,-0.544 0.579,-0.772 0.493,-0.34 1.024,-0.543 1.591,-0.611 0.567,-0.067 1.104,0.032 1.613,0.295 0.509,0.264 0.938,0.652 1.291,1.164 0.403,0.586 0.628,1.205 0.677,1.858 0.049,0.652 -0.101,1.234 -0.448,1.746 -0.348,0.512 -0.996,1.089 -1.945,1.732 M 3.197,-2.566 C 4.196,-3.662 4.801,-4.573 5.011,-5.299 5.316,-6.336 5.161,-7.301 4.546,-8.195 3.897,-9.14 2.981,-9.659 1.798,-9.755 0.353,-9.86 -1.257,-9.303 -3.034,-8.081 l -6.377,4.384 0.236,0.342 c 0.58,-0.399 1.01,-0.615 1.291,-0.649 0.281,-0.034 0.522,0.006 0.724,0.122 0.202,0.115 0.537,0.512 1.003,1.191 l 5.599,8.144 C -0.091,6.132 0.161,6.587 0.199,6.82 0.236,7.054 0.186,7.295 0.048,7.544 -0.089,7.793 -0.445,8.114 -1.019,8.509 L -0.783,8.852 5.232,4.716 C 6.669,3.728 7.6,2.899 8.022,2.232 8.444,1.564 8.653,0.857 8.649,0.111 8.645,-0.635 8.445,-1.295 8.051,-1.869 7.635,-2.474 7.046,-2.861 6.283,-3.032 5.521,-3.203 4.492,-3.048 3.197,-2.566"
             style="fill:#231f20;fill-opacity:1;fill-rule:nonzero;stroke:none"
             id="path112" />
        </g>
        <g
           id="g114"
           transform="translate(257.979,31.7959)">
          <path
             d="m 0,0 -2.375,-5.726 0.28,-0.116 c 0.892,-0.37 1.655,-0.358 2.288,0.035 0.633,0.394 1.232,1.115 1.796,2.161 l 0.394,-0.164 -3.055,-7.365 -0.394,0.164 c 0.25,0.836 0.347,1.566 0.294,2.189 -0.055,0.622 -0.221,1.093 -0.501,1.417 -0.279,0.322 -0.754,0.623 -1.425,0.901 l -1.644,-3.963 c -0.322,-0.774 -0.485,-1.262 -0.491,-1.462 -0.006,-0.2 0.058,-0.392 0.191,-0.578 0.134,-0.184 0.402,-0.36 0.803,-0.527 l 0.84,-0.349 c 1.314,-0.545 2.493,-0.678 3.538,-0.397 1.044,0.28 1.997,0.97 2.859,2.072 l 0.384,-0.159 -2.488,-4.209 -12.157,5.044 0.159,0.384 0.467,-0.194 c 0.408,-0.169 0.767,-0.233 1.076,-0.191 0.22,0.022 0.427,0.131 0.621,0.326 0.145,0.135 0.364,0.555 0.657,1.26 l 3.839,9.253 C -3.78,0.441 -3.636,0.84 -3.61,0.999 -3.579,1.27 -3.629,1.51 -3.761,1.719 -3.944,2.021 -4.263,2.268 -4.72,2.457 L -5.187,2.65 -5.027,3.034 6.747,-1.851 5.021,-6.01 4.626,-5.847 c 0.222,1.1 0.243,1.947 0.063,2.539 -0.179,0.594 -0.558,1.132 -1.136,1.615 -0.335,0.285 -1.036,0.649 -2.1,1.09 z"
             style="fill:#231f20;fill-opacity:1;fill-rule:nonzero;stroke:none"
             id="path116" />
        </g>
        <g
           id="g118"
           transform="translate(273.2139,18.2178)">
          <path
             d="M 0,0 -1.616,5.48 -4.571,0.558 Z m 0.278,-0.871 -5.34,0.651 -0.815,-1.393 c -0.268,-0.465 -0.421,-0.858 -0.46,-1.177 -0.052,-0.424 0.081,-0.757 0.398,-0.999 0.187,-0.144 0.669,-0.293 1.45,-0.449 l -0.05,-0.412 -5.028,0.614 0.05,0.412 c 0.553,0.016 1.026,0.186 1.421,0.511 0.394,0.325 0.918,1.033 1.571,2.122 L 0.354,10.41 0.566,10.385 4.504,-2.677 C 4.881,-3.915 5.218,-4.706 5.515,-5.052 5.74,-5.313 6.08,-5.49 6.536,-5.584 l -0.05,-0.412 -7.313,0.892 0.051,0.413 0.3,-0.037 c 0.587,-0.072 1.01,-0.041 1.268,0.094 0.178,0.099 0.28,0.26 0.308,0.484 0.016,0.133 0.01,0.273 -0.017,0.42 -0.007,0.069 -0.084,0.361 -0.232,0.876 z"
             style="fill:#231f20;fill-opacity:1;fill-rule:nonzero;stroke:none"
             id="path120" />
        </g>
        <g
           id="g122"
           transform="translate(295.4395,30.2617)">
          <path
             d="M 0,0 0.85,-5.209 0.419,-5.28 c -0.548,1.306 -1.324,2.25 -2.328,2.829 -1.006,0.579 -2.07,0.777 -3.193,0.594 -0.939,-0.153 -1.755,-0.564 -2.45,-1.231 -0.696,-0.667 -1.153,-1.467 -1.373,-2.397 -0.283,-1.192 -0.313,-2.471 -0.09,-3.838 0.22,-1.345 0.59,-2.542 1.11,-3.591 0.52,-1.05 1.188,-1.798 2.005,-2.244 0.816,-0.447 1.801,-0.577 2.954,-0.389 0.945,0.154 1.778,0.503 2.498,1.045 0.719,0.542 1.431,1.391 2.138,2.546 l 0.211,-1.297 c -0.698,-1.018 -1.471,-1.798 -2.319,-2.342 -0.849,-0.545 -1.882,-0.916 -3.101,-1.115 -1.604,-0.262 -3.08,-0.173 -4.43,0.267 -1.35,0.439 -2.462,1.206 -3.334,2.3 -0.873,1.094 -1.421,2.321 -1.642,3.68 -0.235,1.434 -0.081,2.855 0.459,4.263 0.54,1.408 1.389,2.571 2.548,3.488 1.159,0.918 2.455,1.493 3.888,1.728 1.057,0.172 2.21,0.126 3.46,-0.141 0.723,-0.155 1.176,-0.218 1.362,-0.188 0.236,0.04 0.428,0.16 0.572,0.362 0.146,0.201 0.213,0.495 0.203,0.881 z"
             style="fill:#231f20;fill-opacity:1;fill-rule:nonzero;stroke:none"
             id="path124" />
        </g>
        <g
           id="g126"
           transform="translate(304.3418,24.4424)">
          <path
             d="m 0,0 1.418,-4.498 c 0.234,-0.743 0.422,-1.194 0.562,-1.354 0.141,-0.16 0.353,-0.271 0.636,-0.336 0.282,-0.063 0.628,-0.031 1.035,0.097 l 0.482,0.153 0.125,-0.397 -7.594,-2.394 -0.125,0.396 0.482,0.152 c 0.421,0.133 0.737,0.315 0.947,0.546 0.154,0.158 0.243,0.375 0.266,0.65 0.025,0.195 -0.078,0.658 -0.307,1.386 L -5.086,3.955 C -5.319,4.697 -5.504,5.149 -5.642,5.311 -5.779,5.471 -5.989,5.584 -6.272,5.647 -6.555,5.711 -6.9,5.679 -7.307,5.551 L -7.789,5.398 -7.914,5.795 -0.32,8.189 -0.195,7.793 -0.678,7.641 C -1.1,7.508 -1.414,7.326 -1.624,7.095 -1.778,6.937 -1.871,6.719 -1.901,6.442 -1.926,6.246 -1.823,5.784 -1.594,5.056 L -0.297,0.943 4.834,2.561 3.537,6.673 C 3.303,7.416 3.117,7.867 2.98,8.028 2.843,8.189 2.631,8.301 2.344,8.364 2.058,8.427 1.711,8.394 1.304,8.266 L 0.832,8.117 0.707,8.514 8.291,10.904 8.416,10.508 7.945,10.359 C 7.516,10.224 7.201,10.042 6.998,9.813 6.844,9.654 6.752,9.438 6.721,9.161 6.696,8.965 6.799,8.502 7.029,7.774 l 3.012,-9.554 c 0.234,-0.742 0.42,-1.195 0.557,-1.356 0.136,-0.16 0.347,-0.272 0.634,-0.335 0.288,-0.062 0.635,-0.03 1.041,0.099 l 0.471,0.148 0.125,-0.396 -7.582,-2.391 -0.125,0.397 0.471,0.148 c 0.428,0.135 0.744,0.318 0.947,0.546 0.153,0.158 0.246,0.376 0.276,0.652 0.025,0.197 -0.078,0.659 -0.307,1.387 L 5.131,1.618 Z"
             style="fill:#231f20;fill-opacity:1;fill-rule:nonzero;stroke:none"
             id="path128" />
        </g>
        <g
           id="g130"
           transform="translate(329.7188,40.6094)">
          <path
             d="m 0,0 2.098,-6.332 0.607,0.201 c 0.988,0.327 1.697,0.663 2.128,1.007 0.43,0.344 0.707,0.798 0.831,1.363 0.124,0.566 0.061,1.229 -0.191,1.99 C 5.107,-0.67 4.58,0.059 3.891,0.414 3.201,0.77 2.284,0.757 1.141,0.378 Z m 2.349,-7.089 1.341,-4.052 c 0.259,-0.781 0.47,-1.257 0.633,-1.428 0.163,-0.171 0.386,-0.277 0.667,-0.318 0.282,-0.04 0.753,0.049 1.414,0.268 l 0.131,-0.395 -7.398,-2.451 -0.131,0.395 c 0.668,0.221 1.1,0.433 1.298,0.636 0.196,0.204 0.309,0.421 0.34,0.652 0.03,0.23 -0.084,0.737 -0.344,1.518 l -3.108,9.382 c -0.258,0.782 -0.469,1.258 -0.632,1.429 -0.164,0.171 -0.386,0.276 -0.667,0.317 -0.283,0.041 -0.753,-0.048 -1.414,-0.267 l -0.131,0.394 6.715,2.226 c 1.75,0.579 3.069,0.882 3.958,0.908 0.891,0.027 1.7,-0.2 2.427,-0.681 C 8.175,0.964 8.684,0.286 8.973,-0.588 9.326,-1.654 9.234,-2.663 8.697,-3.613 8.354,-4.217 7.776,-4.774 6.969,-5.286 l 5.095,-3.742 c 0.665,-0.483 1.12,-0.77 1.363,-0.863 0.364,-0.124 0.742,-0.132 1.133,-0.026 l 0.13,-0.395 -4.551,-1.507 -6.842,5.045 z"
             style="fill:#231f20;fill-opacity:1;fill-rule:nonzero;stroke:none"
             id="path132" />
        </g>
        <g
           id="g134"
           transform="translate(346.6416,45.6377)">
          <path
             d="m 0,0 1.461,-6.024 0.295,0.071 c 0.938,0.227 1.547,0.687 1.826,1.379 0.279,0.692 0.337,1.627 0.175,2.804 l 0.415,0.101 1.879,-7.749 -0.415,-0.101 c -0.292,0.823 -0.643,1.47 -1.054,1.94 -0.41,0.471 -0.824,0.754 -1.24,0.85 -0.416,0.095 -0.977,0.057 -1.683,-0.114 l 1.011,-4.169 c 0.198,-0.815 0.353,-1.305 0.467,-1.47 0.113,-0.165 0.278,-0.284 0.496,-0.354 0.217,-0.07 0.537,-0.055 0.959,0.048 l 0.884,0.215 c 1.382,0.335 2.412,0.924 3.09,1.765 0.678,0.843 1.039,1.963 1.086,3.361 l 0.404,0.098 0.475,-4.866 -12.792,-3.101 -0.097,0.404 0.491,0.119 c 0.429,0.104 0.756,0.264 0.981,0.48 0.164,0.148 0.268,0.358 0.31,0.63 0.037,0.194 -0.034,0.662 -0.214,1.405 l -2.36,9.735 c -0.163,0.669 -0.281,1.076 -0.354,1.22 -0.135,0.237 -0.317,0.4 -0.547,0.491 -0.326,0.137 -0.729,0.147 -1.209,0.03 L -5.751,-0.921 -5.85,-0.517 6.538,2.487 7.6,-1.89 7.185,-1.99 C 6.715,-0.972 6.231,-0.276 5.737,0.098 5.242,0.47 4.619,0.682 3.867,0.73 3.428,0.763 2.648,0.643 1.527,0.371 Z"
             style="fill:#231f20;fill-opacity:1;fill-rule:nonzero;stroke:none"
             id="path136" />
        </g>
        <g
           id="g138"
           transform="translate(367.335,50.4258)">
          <path
             d="M 0,0 0.7,-5.028 0.243,-5.081 c -0.361,1.239 -1.008,2.196 -1.939,2.869 -0.933,0.673 -1.89,0.953 -2.872,0.841 -0.759,-0.087 -1.336,-0.358 -1.733,-0.815 -0.395,-0.456 -0.563,-0.948 -0.503,-1.476 0.038,-0.334 0.151,-0.623 0.337,-0.865 0.256,-0.326 0.641,-0.632 1.156,-0.919 0.378,-0.205 1.235,-0.548 2.571,-1.029 1.87,-0.667 3.158,-1.352 3.864,-2.054 0.699,-0.704 1.105,-1.554 1.22,-2.551 0.144,-1.265 -0.224,-2.409 -1.105,-3.433 -0.881,-1.024 -2.08,-1.624 -3.597,-1.798 -0.477,-0.053 -0.932,-0.057 -1.368,-0.009 -0.434,0.049 -0.987,0.17 -1.658,0.364 -0.374,0.107 -0.676,0.148 -0.906,0.122 -0.193,-0.022 -0.39,-0.12 -0.588,-0.293 -0.199,-0.174 -0.348,-0.421 -0.447,-0.741 l -0.412,-0.047 -0.656,5.712 0.414,0.048 c 0.511,-1.57 1.282,-2.723 2.312,-3.46 1.03,-0.738 2.085,-1.044 3.163,-0.92 0.833,0.095 1.471,0.398 1.914,0.908 0.443,0.511 0.629,1.067 0.56,1.67 -0.04,0.356 -0.175,0.691 -0.404,1.005 -0.227,0.312 -0.552,0.598 -0.973,0.854 -0.422,0.257 -1.151,0.572 -2.188,0.943 -1.454,0.518 -2.509,0.981 -3.167,1.388 -0.656,0.408 -1.18,0.886 -1.571,1.437 -0.392,0.551 -0.627,1.179 -0.708,1.886 -0.139,1.205 0.187,2.282 0.975,3.231 0.788,0.949 1.855,1.502 3.201,1.656 0.491,0.056 0.973,0.051 1.449,-0.015 0.359,-0.049 0.805,-0.166 1.334,-0.35 0.53,-0.184 0.895,-0.265 1.096,-0.242 0.193,0.022 0.34,0.1 0.437,0.231 0.098,0.132 0.169,0.43 0.214,0.895 z"
             style="fill:#231f20;fill-opacity:1;fill-rule:nonzero;stroke:none"
             id="path140" />
        </g>
        <g
           id="g142"
           transform="translate(380.8545,49.3604)">
          <path
             d="m 0,0 c -1.385,0.146 -2.514,-0.449 -3.385,-1.787 -0.711,-1.1 -1.181,-2.736 -1.411,-4.91 -0.273,-2.584 -0.02,-4.542 0.757,-5.874 0.541,-0.931 1.382,-1.456 2.521,-1.576 0.767,-0.082 1.427,0.037 1.98,0.355 0.706,0.407 1.296,1.114 1.771,2.122 0.476,1.008 0.802,2.353 0.981,4.035 C 3.425,-5.632 3.397,-4.113 3.13,-3.08 2.862,-2.047 2.462,-1.295 1.929,-0.824 1.395,-0.354 0.752,-0.079 0,0 M -0.059,0.729 C 2.363,0.563 4.249,-0.347 5.599,-2.003 6.948,-3.659 7.504,-5.611 7.267,-7.859 7.063,-9.78 6.322,-11.411 5.044,-12.752 c -1.693,-1.778 -3.899,-2.524 -6.617,-2.236 -2.725,0.288 -4.735,1.433 -6.029,3.437 -1.022,1.584 -1.426,3.377 -1.215,5.38 0.238,2.248 1.201,4.042 2.889,5.381 1.689,1.338 3.646,1.845 5.869,1.519"
             style="fill:#231f20;fill-opacity:1;fill-rule:nonzero;stroke:none"
             id="path144" />
        </g>
        <g
           id="g146"
           transform="translate(397.6152,45.4844)">
          <path
             d="m 0,0 -2.075,-6.34 0.608,-0.199 c 0.988,-0.323 1.758,-0.476 2.309,-0.454 0.551,0.02 1.043,0.222 1.479,0.602 0.436,0.381 0.779,0.953 1.028,1.714 0.361,1.103 0.37,2.002 0.026,2.698 -0.344,0.695 -1.088,1.23 -2.233,1.605 z m -2.323,-7.098 -1.328,-4.055 c -0.256,-0.784 -0.37,-1.291 -0.34,-1.526 0.029,-0.234 0.145,-0.451 0.347,-0.651 0.203,-0.2 0.635,-0.409 1.297,-0.625 l -0.13,-0.396 -7.407,2.425 0.13,0.395 c 0.668,-0.219 1.143,-0.305 1.422,-0.258 0.279,0.046 0.499,0.153 0.66,0.321 0.161,0.167 0.37,0.643 0.627,1.426 l 3.074,9.392 c 0.256,0.783 0.369,1.292 0.34,1.525 -0.03,0.234 -0.146,0.452 -0.348,0.652 -0.203,0.201 -0.634,0.409 -1.296,0.625 l 0.129,0.395 6.724,-2.201 c 1.75,-0.573 2.991,-1.114 3.724,-1.62 0.732,-0.508 1.247,-1.171 1.547,-1.99 C 7.147,-4.083 7.154,-4.93 6.867,-5.805 6.519,-6.872 5.845,-7.629 4.849,-8.074 4.213,-8.355 3.418,-8.461 2.464,-8.393 l 1.876,-6.038 c 0.247,-0.782 0.442,-1.283 0.583,-1.503 0.22,-0.316 0.517,-0.547 0.895,-0.694 l -0.13,-0.395 -4.557,1.492 -2.505,8.123 z"
             style="fill:#231f20;fill-opacity:1;fill-rule:nonzero;stroke:none"
             id="path148" />
        </g>
        <g
           id="g150"
           transform="translate(421.5,36.6738)">
          <path
             d="m 0,0 -1.72,-3.746 -0.368,0.169 c 0.18,0.964 0.223,1.696 0.131,2.195 -0.092,0.5 -0.317,0.968 -0.677,1.404 -0.202,0.243 -0.627,0.511 -1.273,0.808 L -4.938,1.304 -9.84,-9.372 c -0.325,-0.708 -0.489,-1.168 -0.492,-1.381 -0.003,-0.213 0.079,-0.437 0.246,-0.675 0.167,-0.237 0.448,-0.446 0.843,-0.628 l 0.459,-0.211 -0.174,-0.378 -7.246,3.329 0.174,0.377 0.459,-0.211 c 0.401,-0.184 0.758,-0.261 1.068,-0.231 0.221,0.014 0.435,0.113 0.644,0.298 0.149,0.129 0.383,0.54 0.702,1.234 l 4.902,10.675 -1,0.46 c -0.933,0.428 -1.7,0.541 -2.303,0.341 -0.844,-0.279 -1.58,-0.894 -2.205,-1.843 l -0.387,0.179 1.719,3.745 z"
             style="fill:#231f20;fill-opacity:1;fill-rule:nonzero;stroke:none"
             id="path152" />
        </g>
        <g
           id="g154"
           transform="translate(331.7793,270.6563)">
          <path
             d="m 0,0 2.597,-9.265 9.613,0.394 -8.009,-5.332 3.345,-9.022 -7.546,5.97 -7.545,-5.97 3.344,9.022 -8.008,5.332 9.613,-0.394 z"
             style="fill:none;stroke:#24265d;stroke-width:1.039;stroke-linecap:butt;stroke-linejoin:miter;stroke-miterlimit:4;stroke-dasharray:none;stroke-opacity:1"
             id="path156" />
        </g>
        <g
           id="g158"
           transform="translate(331.7793,270.6563)">
          <path
             d="m 0,0 2.597,-9.265 9.613,0.394 -8.009,-5.332 3.345,-9.022 -7.546,5.97 -7.545,-5.97 3.344,9.022 -8.008,5.332 9.613,-0.394 z"
             style="fill:none;stroke:#24265d;stroke-width:1.039;stroke-linecap:butt;stroke-linejoin:miter;stroke-miterlimit:4;stroke-dasharray:none;stroke-opacity:1"
             id="path160" />
        </g>
        <g
           id="g162"
           transform="translate(336.96,257.104)">
          <path
             d="M 0,0 C 10.341,-2.808 20.152,-6.902 29.251,-12.099"
             style="fill:none;stroke:#2c3792;stroke-width:2.2;stroke-linecap:butt;stroke-linejoin:miter;stroke-miterlimit:10;stroke-dasharray:none;stroke-opacity:1"
             id="path164" />
        </g>
        <g
           id="g166"
           transform="translate(287.5684,260.4336)">
          <path
             d="m 0,0 c 5.354,0.696 10.815,1.055 16.358,1.055 6.117,0 12.13,-0.437 18.013,-1.281"
             style="fill:none;stroke:#2c3792;stroke-width:2.2;stroke-linecap:butt;stroke-linejoin:miter;stroke-miterlimit:10;stroke-dasharray:none;stroke-opacity:1"
             id="path168" />
        </g>
        <g
           id="g170"
           transform="translate(241.5371,244.9438)">
          <path
             d="M 0,0 C 9.407,5.385 19.575,9.591 30.306,12.415"
             style="fill:none;stroke:#2c3792;stroke-width:2.2;stroke-linecap:butt;stroke-linejoin:miter;stroke-miterlimit:10;stroke-dasharray:none;stroke-opacity:1"
             id="path172" />
        </g>
        <g
           id="g174"
           transform="translate(226.8486,36.374)">
          <path
             d="m 0,0 c -29.615,23.007 -48.671,58.961 -48.671,99.365 0,42.551 21.136,80.166 53.481,102.921"
             style="fill:none;stroke:#2c3792;stroke-width:2.2;stroke-linecap:butt;stroke-linejoin:miter;stroke-miterlimit:10;stroke-dasharray:none;stroke-opacity:1"
             id="path176" />
        </g>
        <g
           id="g178"
           transform="translate(378.1875,237.2305)">
          <path
             d="m 0,0 c 31.219,-22.882 51.489,-59.82 51.489,-101.491 0,-28.425 -9.431,-54.648 -25.336,-75.709"
             style="fill:none;stroke:#2c3792;stroke-width:2.2;stroke-linecap:butt;stroke-linejoin:miter;stroke-miterlimit:10;stroke-dasharray:none;stroke-opacity:1"
             id="path180" />
        </g>
        <g
           id="g182"
           transform="translate(158.96,158.5322)">
          <path
             d="M 0,0 V 1.876 L 0.329,1.917 C 2.64,2.205 3.464,2.727 3.75,3.115 4.045,3.517 4.397,4.683 4.397,7.949 v 11.88 H -10.05 V 7.21 c 0,-2.721 0.402,-3.768 0.738,-4.168 0.483,-0.573 1.601,-0.951 3.323,-1.124 L -5.651,1.884 V 0 h -14.628 v 1.873 l 0.324,0.044 c 2.296,0.312 3.125,0.834 3.417,1.218 0.299,0.395 0.656,1.551 0.656,4.814 V 35.26 c 0,2.691 -0.4,3.752 -0.735,4.168 -0.477,0.591 -1.594,0.969 -3.321,1.124 l -0.341,0.031 V 42.47 H -5.651 V 40.583 L -5.993,40.552 C -7.71,40.397 -8.826,40.019 -9.308,39.426 -9.646,39.01 -10.05,37.95 -10.05,35.26 V 23.35 H 4.397 v 11.91 c 0,2.692 -0.394,3.753 -0.725,4.17 -0.468,0.59 -1.588,0.967 -3.33,1.122 L 0,40.582 V 42.47 H 14.627 V 40.583 L 14.285,40.552 C 12.559,40.397 11.441,40.019 10.965,39.428 10.629,39.012 10.229,37.951 10.229,35.26 V 7.21 c 0,-2.721 0.397,-3.759 0.729,-4.151 0.331,-0.389 1.177,-0.902 3.335,-1.142 L 14.627,1.881 V 0 Z"
             style="fill:#ffffff;fill-opacity:1;fill-rule:nonzero;stroke:none"
             id="path184" />
        </g>
        <g
           id="g186"
           transform="translate(173.9619,201.3774)">
          <path
             d="m 0,0 h -0.75 -13.877 -0.75 v -0.75 -1.17 -0.686 l 0.684,-0.061 c 2.144,-0.19 2.843,-0.696 3.069,-0.981 0.241,-0.303 0.645,-1.217 0.645,-3.937 V -19.12 h -13.698 v 11.535 c 0,2.715 0.412,3.627 0.658,3.93 0.234,0.287 0.942,0.798 3.058,0.988 l 0.683,0.062 V -1.92 -0.75 0 h -0.75 -13.878 -0.75 v -0.75 -1.17 -0.686 l 0.683,-0.061 c 2.126,-0.19 2.831,-0.699 3.062,-0.986 0.244,-0.302 0.652,-1.215 0.652,-3.932 v -27.311 c 0,-3.45 -0.406,-4.358 -0.58,-4.588 -0.163,-0.215 -0.8,-0.751 -3.168,-1.073 l -0.649,-0.089 v -0.654 -1.17 -0.75 h 0.75 13.878 0.75 v 0.75 1.17 0.678 l -0.675,0.068 c -2.127,0.214 -2.839,0.714 -3.074,0.993 -0.243,0.288 -0.65,1.181 -0.65,3.926 v 12.243 h 13.698 v -11.504 c 0,-3.457 -0.403,-4.377 -0.576,-4.612 -0.159,-0.217 -0.786,-0.752 -3.165,-1.048 l -0.657,-0.082 v -0.662 -1.17 -0.75 h 0.75 H -0.75 0 v 0.75 1.17 0.671 l -0.667,0.074 c -2.144,0.238 -2.856,0.736 -3.09,1.011 -0.24,0.282 -0.64,1.164 -0.64,3.909 v 28.05 c 0,2.717 0.408,3.63 0.652,3.932 0.231,0.287 0.936,0.796 3.062,0.986 L 0,-2.606 v 0.686 1.17 z m -0.75,-0.75 v -1.17 c -1.841,-0.164 -3.033,-0.585 -3.579,-1.262 -0.546,-0.677 -0.818,-2.145 -0.818,-4.403 v -28.05 c 0,-2.286 0.272,-3.751 0.818,-4.394 0.546,-0.643 1.738,-1.067 3.579,-1.271 v -1.17 h -13.877 v 1.17 c 1.971,0.245 3.196,0.694 3.677,1.348 0.48,0.654 0.721,2.339 0.721,5.056 v 12.254 h -15.198 v -12.993 c 0,-2.286 0.276,-3.756 0.826,-4.409 0.551,-0.654 1.742,-1.072 3.573,-1.256 v -1.17 h -13.878 v 1.17 c 1.954,0.265 3.176,0.719 3.665,1.363 0.488,0.644 0.732,2.324 0.732,5.041 v 27.311 c 0,2.258 -0.272,3.726 -0.818,4.403 -0.546,0.677 -1.739,1.098 -3.579,1.262 v 1.17 h 13.878 v -1.17 c -1.831,-0.164 -3.022,-0.585 -3.573,-1.262 -0.55,-0.677 -0.826,-2.145 -0.826,-4.403 V -19.87 h 15.198 v 12.285 c 0,2.258 -0.269,3.726 -0.807,4.403 -0.537,0.677 -1.735,1.098 -3.591,1.262 v 1.17 H -0.75"
             style="fill:#4f4c4d;fill-opacity:1;fill-rule:nonzero;stroke:none"
             id="path188" />
        </g>
        <g
           id="g190"
           transform="translate(186.3164,185.4224)">
          <path
             d="m 0,0 c -1.883,0 -3.442,-0.982 -4.767,-3.002 -1.338,-2.043 -2.017,-5.278 -2.017,-9.617 0,-4.325 0.676,-7.553 2.01,-9.596 1.319,-2.019 2.881,-3.001 4.774,-3.001 1.852,0 3.401,0.956 4.736,2.924 1.348,1.988 2.032,5.242 2.032,9.673 0,4.485 -0.691,7.756 -2.054,9.722 C 3.362,-0.948 1.82,0 0,0 m -0.009,-27.485 c -3.235,0 -5.954,1.395 -8.082,4.148 -2.138,2.777 -3.222,6.383 -3.222,10.718 0,4.556 1.157,8.269 3.441,11.036 2.118,2.556 4.764,3.852 7.863,3.852 3.112,0 5.763,-1.303 7.881,-3.873 2.272,-2.752 3.424,-6.458 3.424,-11.015 0,-4.627 -1.192,-8.369 -3.543,-11.122 -2.128,-2.485 -4.74,-3.744 -7.762,-3.744"
             style="fill:#ffffff;fill-opacity:1;fill-rule:nonzero;stroke:none"
             id="path192" />
        </g>
        <g
           id="g194"
           transform="translate(186.3164,160.5811)">
          <path
             d="m 0,0 c -1.757,0 -3.215,0.926 -4.46,2.832 -1.293,1.98 -1.949,5.14 -1.949,9.391 0,4.264 0.658,7.43 1.956,9.411 1.249,1.906 2.706,2.832 4.453,2.832 1.688,0 3.129,-0.895 4.406,-2.736 C 5.724,19.829 6.393,16.629 6.393,12.223 6.393,7.868 5.731,4.684 4.426,2.76 3.166,0.903 1.718,0 0,0 m -0.009,27.485 c -3.217,0 -5.959,-1.341 -8.152,-3.987 -2.341,-2.836 -3.527,-6.63 -3.527,-11.275 0,-4.42 1.11,-8.103 3.3,-10.947 2.203,-2.85 5.022,-4.295 8.379,-4.295 3.136,0 5.843,1.304 8.046,3.875 2.412,2.824 3.634,6.648 3.634,11.367 0,4.646 -1.181,8.432 -3.511,11.254 -2.191,2.659 -4.94,4.008 -8.169,4.008 M 0,-0.75 c 1.968,0 3.649,1.029 5.047,3.089 1.396,2.059 2.096,5.354 2.096,9.884 0,4.584 -0.707,7.896 -2.121,9.935 -1.414,2.038 -3.087,3.058 -5.022,3.058 -2.001,0 -3.694,-1.057 -5.08,-3.171 -1.386,-2.114 -2.079,-5.389 -2.079,-9.822 0,-4.421 0.69,-7.687 2.071,-9.802 C -3.707,0.307 -2.012,-0.75 0,-0.75 m -0.009,27.485 c 3.008,0 5.538,-1.245 7.591,-3.736 2.226,-2.696 3.339,-6.288 3.339,-10.776 C 10.921,7.666 9.77,4.04 7.468,1.344 5.404,-1.065 2.912,-2.269 -0.009,-2.269 c -3.127,0 -5.722,1.334 -7.785,4.002 -2.097,2.724 -3.144,6.22 -3.144,10.49 0,4.488 1.119,8.087 3.355,10.797 2.053,2.477 4.577,3.715 7.574,3.715"
             style="fill:#4f4c4d;fill-opacity:1;fill-rule:nonzero;stroke:none"
             id="path196" />
        </g>
        <g
           id="g198"
           transform="translate(203.3613,158.5322)">
          <path
             d="M 0,0 V 1.495 L 0.339,1.528 C 2.042,1.692 2.56,2.059 2.718,2.263 2.883,2.477 3.16,3.172 3.16,5.424 V 26.069 H 1.662 c -1.733,0 -2.912,-0.301 -3.505,-0.896 -0.606,-0.609 -1.078,-2.016 -1.401,-4.183 l -0.048,-0.32 h -1.523 l 0.216,7.893 h 19.593 l 0.197,-7.893 h -1.498 l -0.054,0.311 c -0.376,2.164 -0.847,3.576 -1.401,4.198 -0.525,0.591 -1.711,0.89 -3.523,0.89 H 7.233 V 4.932 C 7.233,2.957 7.539,2.366 7.722,2.19 7.953,1.967 8.559,1.67 10.133,1.528 l 0.342,-0.03 V 0 Z"
             style="fill:#ffffff;fill-opacity:1;fill-rule:nonzero;stroke:none"
             id="path200" />
        </g>
        <g
           id="g202"
           transform="translate(218.7207,187.4707)">
          <path
             d="m 0,0 h -0.731 -18.863 -0.73 l -0.019,-0.729 -0.196,-7.144 -0.021,-0.77 h 0.771 0.814 0.647 l 0.095,0.639 c 0.388,2.599 0.919,3.595 1.296,3.974 0.357,0.358 1.209,0.785 3.24,0.785 h 1.123 v -20.269 c 0,-2.342 -0.303,-2.854 -0.364,-2.933 -0.054,-0.069 -0.41,-0.425 -2.119,-0.59 l -0.677,-0.066 v -0.681 -0.779 -0.75 h 0.75 9.724 0.75 v 0.75 0.779 0.686 l -0.682,0.061 c -1.645,0.149 -2.089,0.465 -2.185,0.558 -0.039,0.037 -0.374,0.421 -0.374,2.473 v 20.761 h 1.106 c 2.23,0 2.99,-0.479 3.244,-0.764 0.348,-0.391 0.858,-1.405 1.312,-4.012 l 0.108,-0.622 h 0.63 0.798 0.769 l -0.019,0.768 -0.178,7.144 z m -0.731,-0.75 0.178,-7.143 h -0.798 c -0.39,2.244 -0.887,3.705 -1.49,4.382 -0.602,0.678 -1.871,1.016 -3.804,1.016 h -1.856 v -21.511 c 0,-1.62 0.201,-2.624 0.603,-3.012 0.401,-0.388 1.281,-0.643 2.638,-0.766 v -0.779 h -9.724 v 0.779 c 1.412,0.137 2.292,0.43 2.639,0.879 0.347,0.449 0.521,1.58 0.521,3.391 v 21.019 h -1.873 c -1.846,0 -3.103,-0.335 -3.771,-1.005 -0.668,-0.671 -1.17,-2.135 -1.507,-4.393 h -0.814 l 0.195,7.143 h 18.863"
             style="fill:#4f4c4d;fill-opacity:1;fill-rule:nonzero;stroke:none"
             id="path204" />
        </g>
        <g
           id="g206"
           transform="translate(218.8525,158.5322)">
          <path
             d="M 0,0 V 1.483 L 0.325,1.526 C 1.737,1.715 2.28,2.018 2.487,2.239 2.653,2.415 2.932,3 2.932,4.932 v 18.7 c 0,1.741 -0.249,2.426 -0.458,2.694 -0.199,0.255 -0.731,0.585 -2.132,0.709 L 0,27.065 v 1.498 h 18.465 l 0.128,-6.764 h -1.552 l -0.048,0.319 c -0.334,2.193 -0.816,3.05 -1.16,3.382 -0.337,0.325 -1.221,0.712 -3.519,0.712 H 7.772 c -0.487,0 -0.58,-0.108 -0.581,-0.109 C 7.155,26.04 7.069,25.821 7.069,25.171 v -9.005 h 4.773 c 1.607,0 2.201,0.35 2.417,0.643 0.243,0.329 0.592,1.127 0.877,3.06 l 0.047,0.32 h 1.48 V 9.729 h -1.478 l -0.049,0.318 c -0.298,1.944 -0.649,2.741 -0.891,3.067 -0.217,0.291 -0.809,0.639 -2.403,0.639 H 7.069 V 3.721 c 0,-0.451 0.066,-1.012 0.38,-1.125 0.212,-0.076 0.965,-0.204 3.634,-0.204 2.185,0 3.806,0.297 4.82,0.884 0.993,0.574 1.913,2.03 2.736,4.328 l 0.089,0.248 h 1.656 L 18.709,0 Z"
             style="fill:#ffffff;fill-opacity:1;fill-rule:nonzero;stroke:none"
             id="path208" />
        </g>
        <g
           id="g210"
           transform="translate(237.6851,187.4707)">
          <path
             d="m 0,0 h -0.736 -17.722 -0.75 v -0.75 -0.78 -0.686 l 0.684,-0.061 c 1.423,-0.126 1.791,-0.466 1.87,-0.567 0.089,-0.113 0.378,-0.627 0.378,-2.463 v -18.699 c 0,-2.015 -0.307,-2.4 -0.342,-2.437 -0.086,-0.091 -0.477,-0.402 -1.939,-0.597 l -0.651,-0.087 v -0.657 -0.779 -0.75 h 0.75 18.032 0.607 l 0.126,0.593 1.515,7.102 0.193,0.907 H 1.088 0.16 -0.369 l -0.177,-0.497 c -0.987,-2.755 -1.943,-3.767 -2.571,-4.13 -0.956,-0.553 -2.515,-0.833 -4.633,-0.833 -2.784,0 -3.387,0.139 -3.506,0.181 0.003,10e-4 -0.132,0.151 -0.132,0.772 v 9.657 h 4.397 c 1.615,0 2.017,-0.373 2.102,-0.487 0.178,-0.239 0.52,-0.934 0.822,-2.9 l 0.098,-0.636 h 0.643 0.782 0.75 v 0.75 9.709 0.75 h -0.75 -0.782 -0.647 l -0.095,-0.64 c -0.288,-1.955 -0.629,-2.651 -0.807,-2.892 -0.085,-0.115 -0.488,-0.491 -2.116,-0.491 h -4.397 v 8.631 c 0,0.344 0.025,0.541 0.047,0.647 0.058,0.01 0.149,0.019 0.281,0.019 h 4.542 c 2.372,0 3.068,-0.424 3.258,-0.607 0.248,-0.239 0.714,-0.97 1.05,-3.169 l 0.096,-0.637 h 0.645 0.847 0.765 L 0.128,-6.75 0.014,-0.736 Z m -0.736,-0.75 0.114,-6.014 h -0.847 c -0.282,1.852 -0.706,3.051 -1.271,3.596 -0.564,0.544 -1.824,0.817 -3.778,0.817 h -4.542 c -0.49,0 -0.792,-0.099 -0.906,-0.297 -0.115,-0.199 -0.172,-0.572 -0.172,-1.119 v -9.381 h 5.147 c 1.423,0 2.329,0.265 2.72,0.796 0.392,0.532 0.706,1.607 0.945,3.227 h 0.782 v -9.709 h -0.782 c -0.25,1.628 -0.57,2.706 -0.961,3.233 -0.391,0.527 -1.293,0.79 -2.704,0.79 h -5.147 v -10.407 c 0,-0.834 0.209,-1.327 0.628,-1.477 0.419,-0.151 1.672,-0.226 3.76,-0.226 2.262,0 3.931,0.311 5.008,0.934 1.076,0.622 2.044,2.131 2.902,4.526 h 0.928 l -1.514,-7.102 h -18.032 v 0.779 c 1.227,0.164 2.022,0.439 2.386,0.827 0.364,0.388 0.546,1.372 0.546,2.951 v 18.699 c 0,1.492 -0.18,2.467 -0.537,2.925 -0.358,0.459 -1.157,0.742 -2.395,0.852 v 0.78 h 17.722"
             style="fill:#4f4c4d;fill-opacity:1;fill-rule:nonzero;stroke:none"
             id="path212" />
        </g>
        <g
           id="g214"
           transform="translate(239.2295,158.5322)">
          <path
             d="M 0,0 V 1.483 L 0.325,1.526 C 1.737,1.715 2.28,2.018 2.487,2.239 2.653,2.415 2.932,3 2.932,4.932 v 18.7 c 0,1.741 -0.249,2.426 -0.458,2.694 -0.199,0.255 -0.731,0.585 -2.132,0.709 L 0,27.065 v 1.498 H 10.164 V 27.058 L 9.814,27.035 C 8.41,26.94 7.829,26.63 7.588,26.386 7.352,26.146 7.069,25.522 7.069,23.919 V 3.721 C 7.069,3.313 7.121,2.997 7.222,2.782 7.29,2.635 7.473,2.537 7.766,2.49 8.003,2.451 8.253,2.425 8.516,2.412 c 0.273,-0.014 0.786,-0.02 1.538,-0.02 2.886,0 4.847,0.294 5.828,0.872 0.964,0.569 1.931,2.094 2.874,4.533 l 0.092,0.24 h 1.573 L 18.623,0 Z"
             style="fill:#ffffff;fill-opacity:1;fill-rule:nonzero;stroke:none"
             id="path216" />
        </g>
        <g
           id="g218"
           transform="translate(249.7686,187.4707)">
          <path
             d="m 0,0 h -0.75 -9.414 -0.75 v -0.75 -0.78 -0.686 l 0.684,-0.061 c 1.422,-0.126 1.791,-0.466 1.87,-0.567 0.088,-0.113 0.378,-0.627 0.378,-2.463 v -18.699 c 0,-2.015 -0.308,-2.4 -0.343,-2.437 -0.086,-0.091 -0.477,-0.402 -1.938,-0.597 l -0.651,-0.087 v -0.657 -0.779 -0.75 h 0.75 17.947 0.601 l 0.131,0.586 1.631,7.287 0.205,0.914 H 9.414 8.566 8.052 l -0.185,-0.48 c -1.136,-2.937 -2.103,-3.984 -2.715,-4.346 -0.634,-0.374 -2.127,-0.819 -5.637,-0.819 -0.746,0 -1.257,0.006 -1.52,0.019 -0.248,0.012 -0.486,0.037 -0.706,0.073 -0.214,0.035 -0.272,0.089 -0.272,0.089 -0.038,0.085 -0.112,0.31 -0.112,0.772 V -5.02 c 0,1.658 0.315,2.106 0.411,2.204 0.129,0.13 0.58,0.444 1.984,0.538 L 0,-2.231 v 0.701 0.78 z M -0.75,-0.75 V -1.53 C -1.977,-1.612 -2.8,-1.865 -3.218,-2.29 -3.636,-2.714 -3.845,-3.624 -3.845,-5.02 v -20.198 c 0,-0.465 0.063,-0.831 0.188,-1.098 0.125,-0.267 0.399,-0.434 0.824,-0.503 0.25,-0.041 0.514,-0.068 0.791,-0.082 0.276,-0.014 0.796,-0.02 1.557,-0.02 2.968,0 4.974,0.308 6.018,0.923 1.043,0.616 2.055,2.19 3.033,4.722 h 0.848 l -1.631,-7.287 h -17.947 v 0.779 c 1.226,0.164 2.021,0.439 2.386,0.827 0.364,0.388 0.546,1.372 0.546,2.951 v 18.699 c 0,1.492 -0.18,2.467 -0.538,2.925 -0.358,0.459 -1.157,0.742 -2.394,0.852 v 0.78 h 9.414"
             style="fill:#4f4c4d;fill-opacity:1;fill-rule:nonzero;stroke:none"
             id="path220" />
        </g>
        <g
           id="g222"
           transform="translate(277.0166,176.1851)">
          <path
             d="m 0,0 c -1.495,0 -3.002,-1.624 -4.481,-4.825 -1.359,-2.944 -2.048,-5.525 -2.048,-7.674 0,-0.772 0.141,-1.451 0.419,-2.019 0.24,-0.493 0.625,-0.722 1.211,-0.722 1.387,0 2.78,1.512 4.142,4.496 1.353,2.89 2.038,5.658 2.038,8.229 0,0.782 -0.101,1.431 -0.301,1.931 C 0.818,-0.18 0.516,0 0,0 m 0.746,-18.146 c -0.371,0 -0.713,0.105 -1.016,0.313 -0.556,0.408 -0.834,1.104 -0.834,2.074 0,0.296 0.033,0.759 0.1,1.413 0.005,0.051 0.011,0.102 0.017,0.154 -0.566,-0.873 -1.164,-1.637 -1.791,-2.281 -1.052,-1.083 -2.225,-1.631 -3.488,-1.631 -1.056,0 -1.987,0.473 -2.766,1.405 -0.761,0.914 -1.147,2.312 -1.147,4.157 0,3.044 1.125,6.207 3.345,9.4 2.237,3.223 4.48,4.857 6.665,4.857 0.989,0 1.71,-0.317 2.144,-0.94 0.05,-0.073 0.097,-0.154 0.142,-0.244 l 1.59,6.988 C 3.756,7.734 3.789,7.926 3.804,8.096 3.82,8.268 3.827,8.417 3.827,8.545 3.827,9.142 3.719,9.268 3.717,9.27 3.633,9.343 3.489,9.381 3.29,9.381 3.117,9.381 2.956,9.374 2.809,9.362 2.653,9.348 1.774,9.257 1.774,9.257 v 1.412 l 0.314,0.052 c 1.219,0.203 2.934,0.56 5.1,1.063 L 7.431,11.84 7.813,11.309 7.758,10.933 4.539,-3.845 2.35,-13.606 c -0.04,-0.206 -0.075,-0.403 -0.101,-0.583 -0.024,-0.167 -0.037,-0.318 -0.037,-0.454 0,-0.342 0.072,-0.426 0.073,-0.427 0.108,-0.082 0.158,-0.088 0.158,-0.088 0.028,0 0.32,0.026 1.059,0.917 0.33,0.412 0.794,1.07 1.377,1.949 l 0.278,0.42 0.859,-1.032 -0.348,-0.655 c -0.414,-0.772 -0.951,-1.568 -1.597,-2.367 -1.213,-1.493 -2.3,-2.22 -3.325,-2.22"
             style="fill:#ffffff;fill-opacity:1;fill-rule:nonzero;stroke:none"
             id="path224" />
        </g>
        <g
           id="g226"
           transform="translate(272.1172,161.3198)">
          <path
             d="m 0,0 c -0.443,0 -0.696,0.148 -0.874,0.512 -0.253,0.516 -0.381,1.14 -0.381,1.854 0,2.094 0.678,4.623 2.014,7.517 1.392,3.014 2.824,4.607 4.14,4.607 0.455,0 0.561,-0.172 0.632,-0.348 C 5.713,13.687 5.806,13.083 5.806,12.35 5.806,9.834 5.132,7.12 3.804,4.283 2.524,1.479 1.21,0 0,0 M 12.489,27.127 12.002,27.014 C 9.845,26.514 8.137,26.158 6.926,25.956 L 6.299,25.852 v -0.636 -0.677 -0.833 l 0.828,0.087 c 0.255,0.027 0.459,0.047 0.614,0.061 0.136,0.011 0.286,0.017 0.448,0.017 0.056,0 0.099,-0.004 0.129,-0.01 C 8.334,23.785 8.352,23.645 8.352,23.41 8.352,23.292 8.344,23.154 8.33,22.995 8.317,22.845 8.287,22.668 8.241,22.47 L 6.828,16.259 c -0.507,0.463 -1.21,0.696 -2.098,0.696 -2.347,0 -4.628,-1.641 -6.973,-5.017 -2.263,-3.258 -3.411,-6.493 -3.411,-9.614 0,-1.935 0.415,-3.415 1.233,-4.397 0.854,-1.023 1.881,-1.541 3.055,-1.541 1.367,0 2.631,0.587 3.756,1.744 0.355,0.365 0.7,0.766 1.036,1.203 -0.004,-0.084 -0.005,-0.16 -0.005,-0.227 0,-1.097 0.329,-1.894 0.977,-2.369 0.386,-0.265 0.799,-0.392 1.248,-0.392 1.145,0 2.327,0.771 3.615,2.358 0.662,0.817 1.213,1.633 1.636,2.425 L 11.128,1.563 11.364,2.008 11.042,2.395 10.667,2.846 10.023,3.622 9.466,2.78 C 8.889,1.911 8.431,1.262 8.104,0.853 7.822,0.513 7.62,0.32 7.486,0.211 v 0.012 c 0,0.114 0.012,0.249 0.034,0.399 0.025,0.174 0.058,0.365 0.1,0.573 l 2.184,9.741 3.215,14.757 0.005,0.025 0.004,0.026 0.034,0.226 0.043,0.3 -0.177,0.247 -0.147,0.205 z M 0,-0.75 c 1.555,0 3.049,1.572 4.483,4.715 1.382,2.952 2.073,5.747 2.073,8.385 0,0.834 -0.11,1.524 -0.328,2.07 -0.219,0.547 -0.662,0.82 -1.329,0.82 -1.662,0 -3.268,-1.681 -4.821,-5.043 C -1.311,7.19 -2.005,4.58 -2.005,2.366 -2.005,1.532 -1.853,0.805 -1.548,0.183 -1.244,-0.439 -0.728,-0.75 0,-0.75 M 12.172,26.284 12.319,26.079 12.286,25.853 9.072,11.1 6.884,1.341 C 6.84,1.12 6.805,0.917 6.777,0.73 6.75,0.543 6.736,0.375 6.736,0.223 c 0,-0.373 0.074,-0.615 0.22,-0.725 0.146,-0.111 0.274,-0.166 0.384,-0.166 0.318,0 0.768,0.351 1.35,1.053 0.341,0.427 0.808,1.087 1.401,1.981 L 10.466,1.915 10.236,1.482 C 9.832,0.727 9.313,-0.042 8.679,-0.825 7.553,-2.212 6.542,-2.905 5.646,-2.905 c -0.295,0 -0.564,0.082 -0.804,0.246 -0.447,0.328 -0.671,0.917 -0.671,1.765 0,0.288 0.033,0.746 0.098,1.375 C 4.334,1.11 4.434,1.8 4.567,2.551 3.741,0.964 2.836,-0.334 1.853,-1.347 0.869,-2.358 -0.204,-2.864 -1.366,-2.864 c -0.947,0 -1.772,0.424 -2.479,1.271 -0.706,0.847 -1.059,2.153 -1.059,3.917 0,2.98 1.092,6.042 3.277,9.186 2.174,3.13 4.293,4.695 6.357,4.695 0.864,0 1.475,-0.26 1.836,-0.779 0.207,-0.301 0.372,-0.814 0.492,-1.539 l 1.914,8.414 c 0.053,0.233 0.089,0.442 0.105,0.627 0.017,0.184 0.025,0.345 0.025,0.482 0,0.534 -0.08,0.869 -0.237,1.006 -0.157,0.136 -0.383,0.205 -0.676,0.205 -0.184,0 -0.355,-0.007 -0.512,-0.02 C 7.519,24.587 7.31,24.566 7.049,24.539 v 0.677 c 1.233,0.205 2.941,0.561 5.123,1.068"
             style="fill:#4f4c4d;fill-opacity:1;fill-rule:nonzero;stroke:none"
             id="path228" />
        </g>
        <g
           id="g230"
           transform="translate(293.7803,176.0825)">
          <path
             d="m 0,0 c -0.592,0 -1.196,-0.34 -1.798,-1.012 -0.656,-0.732 -1.257,-1.575 -1.785,-2.505 -0.557,-1.082 -1.009,-2.146 -1.338,-3.147 -0.129,-0.38 -0.263,-0.795 -0.401,-1.246 1.708,0.424 3.134,1.265 4.245,2.505 1.233,1.375 1.858,2.748 1.858,4.08 0,0.444 -0.079,0.793 -0.234,1.038 C 0.42,-0.088 0.252,0 0,0 m -5.001,-18.043 c -1.261,0 -2.377,0.562 -3.315,1.671 -0.924,1.089 -1.393,2.654 -1.393,4.65 0,3.105 1.122,6.148 3.335,9.045 2.214,2.927 4.556,4.412 6.96,4.412 0.945,0 1.713,-0.284 2.283,-0.845 C 3.441,0.327 3.73,-0.5 3.73,-1.569 3.73,-3.65 2.757,-5.449 0.838,-6.917 -1.035,-8.35 -3.035,-9.24 -5.106,-9.562 l -0.682,-0.105 c -0.107,-0.437 -0.182,-0.794 -0.228,-1.072 -0.05,-0.315 -0.076,-0.72 -0.076,-1.202 0,-1.101 0.281,-1.961 0.836,-2.557 0.555,-0.596 1.193,-0.886 1.949,-0.886 0.728,0 1.524,0.32 2.365,0.951 0.499,0.379 1.245,1.085 2.219,2.096 l 0.28,0.29 0.881,-0.982 -0.149,-0.24 c -0.504,-0.804 -1.233,-1.639 -2.169,-2.481 -1.681,-1.521 -3.404,-2.293 -5.121,-2.293"
             style="fill:#ffffff;fill-opacity:1;fill-rule:nonzero;stroke:none"
             id="path232" />
        </g>
        <g
           id="g234"
           transform="translate(289.0244,168.7227)">
          <path
             d="m 0,0 c 0.064,0.201 0.127,0.391 0.188,0.572 0.326,0.99 0.77,2.034 1.326,3.113 0.5,0.879 1.085,1.7 1.723,2.413 0.528,0.589 1.038,0.887 1.519,0.887 0.147,0 0.185,-0.043 0.23,-0.113 C 5.102,6.69 5.162,6.401 5.162,6.035 5.162,4.798 4.568,3.51 3.399,2.205 2.47,1.168 1.351,0.44 0,0 m 5.342,9.47 c -2.528,0 -4.971,-1.535 -7.26,-4.562 -2.262,-2.961 -3.41,-6.081 -3.41,-9.27 0,-2.087 0.498,-3.734 1.482,-4.893 1.013,-1.196 2.224,-1.803 3.601,-1.803 1.813,0 3.62,0.804 5.374,2.39 0.959,0.865 1.712,1.727 2.233,2.56 l 0.3,0.479 -0.377,0.42 -0.424,0.472 -0.539,0.6 -0.559,-0.581 C 4.803,-5.714 4.07,-6.407 3.585,-6.775 2.814,-7.354 2.094,-7.649 1.449,-7.649 c -0.647,0 -1.195,0.251 -1.674,0.767 -0.495,0.531 -0.736,1.284 -0.736,2.301 0,0.462 0.024,0.847 0.072,1.143 0.035,0.213 0.089,0.481 0.163,0.799 l 0.432,0.067 c 2.135,0.332 4.193,1.245 6.116,2.717 2.016,1.543 3.039,3.442 3.039,5.646 0,1.172 -0.327,2.09 -0.973,2.726 C 7.245,9.149 6.389,9.47 5.342,9.47 M -1.108,-1.051 C 0.966,-0.668 2.654,0.25 3.958,1.704 5.261,3.158 5.912,4.602 5.912,6.035 5.912,6.554 5.814,6.967 5.619,7.274 5.424,7.581 5.136,7.735 4.756,7.735 4.05,7.735 3.357,7.356 2.679,6.598 2,5.841 1.39,4.984 0.847,4.028 0.271,2.909 -0.186,1.836 -0.521,0.813 -0.707,0.267 -0.902,-0.354 -1.108,-1.051 m 6.45,9.771 c 0.847,0 1.52,-0.246 2.02,-0.738 C 7.861,7.491 8.111,6.76 8.111,5.791 8.111,3.824 7.196,2.14 5.366,0.74 3.536,-0.66 1.612,-1.517 -0.408,-1.831 l -0.928,-0.143 c -0.142,-0.562 -0.239,-1.009 -0.294,-1.345 -0.054,-0.335 -0.081,-0.756 -0.081,-1.262 0,-1.205 0.313,-2.142 0.937,-2.812 0.624,-0.671 1.365,-1.006 2.223,-1.006 0.815,0 1.678,0.342 2.59,1.026 0.522,0.397 1.275,1.109 2.264,2.135 L 6.727,-5.71 c -0.489,-0.78 -1.19,-1.581 -2.102,-2.402 -1.618,-1.464 -3.241,-2.196 -4.87,-2.196 -1.151,0 -2.161,0.513 -3.029,1.538 -0.87,1.025 -1.304,2.495 -1.304,4.408 0,3.035 1.086,5.974 3.258,8.817 2.15,2.843 4.371,4.265 6.662,4.265"
             style="fill:#4f4c4d;fill-opacity:1;fill-rule:nonzero;stroke:none"
             id="path236" />
        </g>
        <g
           id="g238"
           transform="translate(301.3232,158.0806)">
          <path
             d="m 0,0 c -0.479,0 -0.909,0.152 -1.28,0.453 -0.558,0.44 -0.842,1.174 -0.842,2.18 0,0.362 0.045,0.843 0.135,1.431 0.06,0.354 0.137,0.755 0.233,1.212 l 4.577,20.531 c 0.041,0.165 0.065,0.32 0.074,0.477 0.01,0.166 0.015,0.302 0.015,0.406 0,0.431 -0.144,0.481 -0.192,0.498 -0.152,0.052 -0.509,0.115 -1.348,0.115 L 0.697,27.294 v 1.376 l 2.007,0.34 c 0.633,0.108 1.045,0.183 1.24,0.223 0.594,0.133 1.332,0.337 2.192,0.607 l 0.054,0.017 h 0.058 c 0.22,0 0.407,-0.133 0.556,-0.396 L 6.874,29.336 1.421,4.523 C 1.304,3.946 1.233,3.594 1.212,3.472 1.194,3.37 1.186,3.269 1.186,3.167 c 0,-0.21 0.028,-0.386 0.085,-0.524 0.021,-0.006 0.044,-0.01 0.072,-0.01 0.193,0 0.554,0.181 1.232,1.122 0.613,0.852 1.142,1.694 1.571,2.502 L 4.368,6.679 5.387,5.775 5.246,5.514 C 4.29,3.74 3.563,2.541 3.023,1.848 2.046,0.621 1.03,0 0,0"
             style="fill:#ffffff;fill-opacity:1;fill-rule:nonzero;stroke:none"
             id="path240" />
        </g>
        <g
           id="g242"
           transform="translate(307.5713,188.3125)">
          <path
             d="m 0,0 h -0.114 l -0.11,-0.034 C -1.073,-0.3 -1.802,-0.502 -2.392,-0.634 -2.573,-0.671 -2.981,-0.746 -3.606,-0.853 -4.245,-0.962 -4.81,-1.057 -5.3,-1.139 l -0.626,-0.105 v -0.635 -0.678 -0.761 l 0.762,0.011 0.288,0.003 c 0.697,0 1.018,-0.045 1.152,-0.075 0.007,-0.034 0.013,-0.087 0.013,-0.163 0,-0.098 -0.005,-0.227 -0.015,-0.385 -0.008,-0.137 -0.029,-0.269 -0.06,-0.399 l -4.58,-20.544 c -0.1,-0.47 -0.178,-0.876 -0.238,-1.225 -0.096,-0.632 -0.141,-1.118 -0.141,-1.504 0,-1.126 0.332,-1.959 0.987,-2.477 0.433,-0.35 0.944,-0.531 1.51,-0.531 1.149,0 2.265,0.669 3.314,1.986 0.558,0.716 1.296,1.932 2.262,3.725 l 0.282,0.522 -0.444,0.395 -0.439,0.39 -0.714,0.633 -0.448,-0.843 c -0.419,-0.793 -0.939,-1.62 -1.543,-2.459 -0.32,-0.445 -0.552,-0.694 -0.71,-0.833 v 0.026 c 0,0.08 0.007,0.16 0.021,0.24 0.021,0.121 0.092,0.471 0.209,1.048 l 5.42,24.661 0.061,0.281 -0.141,0.25 C 0.608,-0.102 0.251,0 0,0 m 0,-0.75 c 0.076,0 0.152,-0.069 0.229,-0.205 l -5.422,-24.673 c -0.12,-0.589 -0.191,-0.945 -0.212,-1.068 -0.022,-0.123 -0.033,-0.246 -0.033,-0.369 0,-0.26 0.039,-0.483 0.115,-0.667 0.075,-0.185 0.217,-0.277 0.423,-0.277 0.391,0 0.901,0.437 1.532,1.313 0.63,0.876 1.161,1.724 1.597,2.546 l 0.439,-0.391 c -0.937,-1.737 -1.666,-2.942 -2.189,-3.612 -0.904,-1.136 -1.812,-1.704 -2.727,-1.704 -0.392,0 -0.74,0.123 -1.045,0.37 -0.468,0.369 -0.702,0.998 -0.702,1.888 0,0.342 0.043,0.801 0.13,1.375 0.059,0.342 0.136,0.739 0.23,1.191 l 4.576,20.527 c 0.044,0.177 0.071,0.355 0.082,0.533 0.011,0.178 0.016,0.322 0.016,0.431 0,0.465 -0.148,0.75 -0.444,0.852 -0.262,0.09 -0.752,0.136 -1.471,0.136 -0.096,0 -0.195,-0.001 -0.3,-0.003 v 0.678 c 0.491,0.082 1.056,0.178 1.696,0.287 0.638,0.11 1.055,0.185 1.252,0.226 0.612,0.137 1.354,0.342 2.228,0.616"
             style="fill:#4f4c4d;fill-opacity:1;fill-rule:nonzero;stroke:none"
             id="path244" />
        </g>
        <g
           id="g246"
           transform="translate(310.5918,158.0806)">
          <path
             d="m 0,0 c -0.479,0 -0.909,0.152 -1.281,0.453 -0.557,0.44 -0.841,1.174 -0.841,2.18 0,0.362 0.045,0.843 0.134,1.431 0.062,0.354 0.138,0.755 0.234,1.212 l 4.577,20.531 c 0.04,0.165 0.064,0.32 0.074,0.477 0.01,0.166 0.015,0.302 0.015,0.406 0,0.431 -0.144,0.481 -0.191,0.498 -0.153,0.052 -0.51,0.115 -1.349,0.115 L 0.697,27.294 v 1.376 l 2.008,0.34 c 0.631,0.108 1.044,0.183 1.239,0.223 0.593,0.133 1.333,0.337 2.192,0.607 l 0.054,0.017 h 0.058 c 0.221,0 0.407,-0.133 0.556,-0.396 L 6.875,29.336 1.421,4.523 C 1.305,3.946 1.233,3.594 1.213,3.472 1.194,3.37 1.186,3.269 1.186,3.167 c 0,-0.21 0.029,-0.386 0.085,-0.524 0.022,-0.006 0.045,-0.01 0.073,-0.01 0.191,0 0.553,0.181 1.232,1.122 0.612,0.852 1.141,1.694 1.57,2.502 L 4.369,6.679 5.387,5.775 5.246,5.514 C 4.29,3.74 3.563,2.541 3.023,1.848 2.046,0.621 1.029,0 0,0"
             style="fill:#ffffff;fill-opacity:1;fill-rule:nonzero;stroke:none"
             id="path248" />
        </g>
        <g
           id="g250"
           transform="translate(316.8398,188.3125)">
          <path
             d="m 0,0 h -0.115 l -0.11,-0.034 c -0.848,-0.266 -1.578,-0.468 -2.166,-0.6 -0.182,-0.037 -0.59,-0.112 -1.216,-0.219 -0.639,-0.109 -1.202,-0.204 -1.692,-0.286 l -0.627,-0.105 v -0.635 -0.678 -0.761 l 0.762,0.011 0.288,0.003 c 0.696,0 1.017,-0.045 1.153,-0.075 0.006,-0.034 0.012,-0.087 0.012,-0.163 0,-0.098 -0.005,-0.227 -0.014,-0.385 -0.009,-0.137 -0.029,-0.269 -0.062,-0.399 l -4.58,-20.544 c -0.098,-0.47 -0.176,-0.876 -0.237,-1.225 -0.095,-0.632 -0.141,-1.118 -0.141,-1.504 0,-1.126 0.332,-1.959 0.987,-2.477 0.434,-0.35 0.944,-0.531 1.51,-0.531 1.15,0 2.265,0.669 3.314,1.986 0.558,0.716 1.296,1.932 2.262,3.725 l 0.281,0.522 -0.443,0.395 -0.439,0.39 -0.713,0.633 -0.448,-0.843 c -0.421,-0.793 -0.94,-1.62 -1.543,-2.459 -0.32,-0.445 -0.554,-0.694 -0.711,-0.833 v 0.026 c 0,0.08 0.007,0.16 0.022,0.24 0.02,0.121 0.091,0.471 0.207,1.048 l 5.421,24.661 0.061,0.281 -0.14,0.25 C 0.607,-0.102 0.251,0 0,0 m 0,-0.75 c 0.076,0 0.152,-0.069 0.229,-0.205 l -5.422,-24.673 c -0.12,-0.589 -0.191,-0.945 -0.212,-1.068 -0.022,-0.123 -0.033,-0.246 -0.033,-0.369 0,-0.26 0.039,-0.483 0.115,-0.667 0.075,-0.185 0.217,-0.277 0.423,-0.277 0.391,0 0.901,0.437 1.532,1.313 0.63,0.876 1.161,1.724 1.597,2.546 l 0.439,-0.391 c -0.937,-1.737 -1.666,-2.942 -2.189,-3.612 -0.904,-1.136 -1.812,-1.704 -2.727,-1.704 -0.392,0 -0.74,0.123 -1.045,0.37 -0.468,0.369 -0.702,0.998 -0.702,1.888 0,0.342 0.043,0.801 0.13,1.375 0.059,0.342 0.136,0.739 0.23,1.191 l 4.576,20.527 c 0.044,0.177 0.071,0.355 0.082,0.533 0.011,0.178 0.016,0.322 0.016,0.431 0,0.465 -0.148,0.75 -0.444,0.852 -0.262,0.09 -0.752,0.136 -1.471,0.136 -0.097,0 -0.196,-0.001 -0.3,-0.003 v 0.678 c 0.491,0.082 1.056,0.178 1.696,0.287 0.638,0.11 1.055,0.185 1.252,0.226 0.612,0.137 1.354,0.342 2.228,0.616"
             style="fill:#4f4c4d;fill-opacity:1;fill-rule:nonzero;stroke:none"
             id="path252" />
        </g>
        <g
           id="g254"
           transform="translate(327.1221,176.0825)">
          <path
             d="m 0,0 c -0.592,0 -1.196,-0.34 -1.798,-1.012 -0.656,-0.732 -1.257,-1.575 -1.785,-2.505 -0.557,-1.082 -1.01,-2.146 -1.338,-3.147 -0.129,-0.38 -0.263,-0.795 -0.4,-1.246 1.707,0.424 3.133,1.265 4.244,2.505 1.233,1.375 1.858,2.748 1.858,4.08 0,0.444 -0.079,0.793 -0.234,1.038 C 0.421,-0.088 0.252,0 0,0 m -5.001,-18.043 c -1.262,0 -2.377,0.562 -3.315,1.671 -0.924,1.089 -1.393,2.654 -1.393,4.65 0,3.105 1.122,6.148 3.335,9.045 2.214,2.927 4.557,4.412 6.96,4.412 C 1.53,1.735 2.299,1.451 2.869,0.89 3.44,0.327 3.73,-0.5 3.73,-1.569 3.73,-3.65 2.757,-5.449 0.839,-6.917 -1.034,-8.35 -3.034,-9.24 -5.106,-9.562 l -0.682,-0.105 c -0.107,-0.437 -0.182,-0.794 -0.228,-1.072 -0.049,-0.315 -0.076,-0.72 -0.076,-1.202 0,-1.101 0.281,-1.961 0.836,-2.557 0.555,-0.596 1.193,-0.886 1.949,-0.886 0.728,0 1.525,0.32 2.365,0.951 0.498,0.379 1.246,1.085 2.218,2.096 l 0.281,0.29 0.881,-0.982 -0.15,-0.24 c -0.503,-0.804 -1.232,-1.639 -2.168,-2.481 -1.681,-1.521 -3.404,-2.293 -5.121,-2.293"
             style="fill:#ffffff;fill-opacity:1;fill-rule:nonzero;stroke:none"
             id="path256" />
        </g>
        <g
           id="g258"
           transform="translate(322.3662,168.7227)">
          <path
             d="m 0,0 c 0.064,0.201 0.128,0.391 0.188,0.572 0.326,0.99 0.77,2.034 1.326,3.113 0.5,0.879 1.085,1.7 1.723,2.413 0.528,0.589 1.038,0.887 1.519,0.887 0.147,0 0.185,-0.043 0.23,-0.113 C 5.101,6.69 5.162,6.401 5.162,6.035 5.162,4.798 4.569,3.51 3.399,2.205 2.47,1.168 1.351,0.44 0,0 m 5.342,9.47 c -2.529,0 -4.971,-1.535 -7.261,-4.562 -2.262,-2.961 -3.409,-6.081 -3.409,-9.27 0,-2.087 0.499,-3.734 1.481,-4.893 1.014,-1.196 2.225,-1.803 3.602,-1.803 1.812,0 3.621,0.804 5.373,2.39 0.961,0.865 1.713,1.727 2.234,2.56 l 0.3,0.479 -0.378,0.42 -0.424,0.472 -0.539,0.6 -0.558,-0.581 C 4.803,-5.714 4.069,-6.407 3.585,-6.775 2.813,-7.354 2.095,-7.649 1.449,-7.649 c -0.647,0 -1.194,0.251 -1.675,0.767 -0.494,0.531 -0.735,1.284 -0.735,2.301 0,0.462 0.024,0.847 0.071,1.143 0.036,0.213 0.09,0.481 0.164,0.799 l 0.432,0.067 c 2.135,0.332 4.193,1.245 6.115,2.717 2.018,1.543 3.04,3.442 3.04,5.646 0,1.172 -0.327,2.09 -0.972,2.726 C 7.245,9.149 6.388,9.47 5.342,9.47 M -1.108,-1.051 C 0.966,-0.668 2.654,0.25 3.958,1.704 5.261,3.158 5.912,4.602 5.912,6.035 5.912,6.554 5.814,6.967 5.619,7.274 5.424,7.581 5.136,7.735 4.756,7.735 4.05,7.735 3.357,7.356 2.679,6.598 2,5.841 1.39,4.984 0.847,4.028 0.271,2.909 -0.186,1.836 -0.521,0.813 -0.707,0.267 -0.902,-0.354 -1.108,-1.051 m 6.45,9.771 c 0.847,0 1.52,-0.246 2.02,-0.738 C 7.861,7.491 8.111,6.76 8.111,5.791 8.111,3.824 7.196,2.14 5.366,0.74 3.536,-0.66 1.612,-1.517 -0.408,-1.831 l -0.928,-0.143 c -0.142,-0.562 -0.239,-1.009 -0.294,-1.345 -0.054,-0.335 -0.081,-0.756 -0.081,-1.262 0,-1.205 0.313,-2.142 0.937,-2.812 0.624,-0.671 1.365,-1.006 2.223,-1.006 0.815,0 1.678,0.342 2.59,1.026 0.522,0.397 1.275,1.109 2.264,2.135 L 6.727,-5.71 c -0.489,-0.78 -1.19,-1.581 -2.102,-2.402 -1.618,-1.464 -3.241,-2.196 -4.87,-2.196 -1.151,0 -2.161,0.513 -3.029,1.538 -0.87,1.025 -1.304,2.495 -1.304,4.408 0,3.035 1.086,5.974 3.258,8.817 2.15,2.843 4.371,4.265 6.662,4.265"
             style="fill:#4f4c4d;fill-opacity:1;fill-rule:nonzero;stroke:none"
             id="path260" />
        </g>
        <g
           id="g262"
           transform="translate(353.8916,157.7007)">
          <path
             d="M 0,0 C -1.593,0 -3.274,0.384 -5,1.141 -7.231,2.118 -7.669,2.212 -7.75,2.217 -8.31,2.217 -8.493,1.973 -8.589,1.76 -8.776,1.343 -8.901,0.893 -8.961,0.421 L -9.002,0.093 h -1.767 l -1.573,14.174 h 1.847 l 0.08,-0.268 c 0.83,-2.782 1.814,-5.026 2.927,-6.671 1.901,-2.812 4.284,-4.238 7.082,-4.238 1.497,0 2.759,0.585 3.858,1.787 1.092,1.195 1.646,2.902 1.646,5.074 0,1.958 -0.565,3.683 -1.677,5.129 -0.74,0.934 -2.345,2.374 -4.764,4.275 l -4.267,3.356 c -1.308,1.045 -2.366,2.115 -3.147,3.184 -1.459,2.049 -2.197,4.339 -2.197,6.81 0,3.253 0.874,6.004 2.598,8.176 1.744,2.199 4.086,3.314 6.963,3.314 1.188,0 2.624,-0.368 4.269,-1.094 2.107,-0.931 2.525,-1.024 2.603,-1.031 0.481,0 0.797,0.125 0.961,0.382 0.209,0.328 0.376,0.812 0.498,1.439 l 0.058,0.304 H 8.678 L 9.837,30.021 h -1.91 l -0.061,0.3 c -0.795,3.944 -2.074,6.724 -3.803,8.262 -1.72,1.53 -3.433,2.306 -5.089,2.306 -1.278,0 -2.362,-0.462 -3.315,-1.414 -0.939,-0.938 -1.417,-2.273 -1.417,-3.968 0,-1.537 0.372,-2.865 1.107,-3.946 0.754,-1.133 1.949,-2.335 3.554,-3.579 L 3.299,24.564 C 6.07,22.413 8.058,20.401 9.204,18.587 10.35,16.727 10.93,14.506 10.93,11.983 10.93,8.598 9.899,5.728 7.866,3.451 5.821,1.161 3.176,0 0,0"
             style="fill:#ffffff;fill-opacity:1;fill-rule:nonzero;stroke:none"
             id="path264" />
        </g>
        <g
           id="g266"
           transform="translate(362.9141,202.2705)">
          <path
             d="m 0,0 h -0.69 -1.027 -0.619 l -0.117,-0.608 c -0.112,-0.58 -0.262,-1.021 -0.446,-1.309 -0.085,-0.132 -0.291,-0.202 -0.615,-0.207 -0.125,0.027 -0.625,0.178 -2.48,0.998 C -7.688,-0.379 -9.176,0 -10.415,0 c -2.997,0 -5.439,-1.163 -7.257,-3.456 -1.778,-2.239 -2.68,-5.069 -2.68,-8.409 0,-2.551 0.762,-4.913 2.264,-7.024 0.807,-1.103 1.888,-2.197 3.219,-3.261 l 4.271,-3.359 c 2.397,-1.884 3.98,-3.303 4.705,-4.218 1.071,-1.389 1.593,-2.992 1.593,-4.892 0,-2.075 -0.52,-3.697 -1.548,-4.821 -1.023,-1.12 -2.195,-1.664 -3.581,-1.664 -2.704,0 -4.919,1.332 -6.77,4.072 -1.092,1.613 -2.061,3.823 -2.879,6.569 l -0.16,0.535 h -0.559 -1.148 -0.838 l 0.092,-0.832 1.49,-13.425 0.074,-0.667 h 0.672 1.1 0.662 l 0.082,0.657 c 0.054,0.434 0.17,0.848 0.341,1.232 0.043,0.093 0.108,0.235 0.502,0.235 0.042,-0.011 0.504,-0.129 2.595,-1.045 1.773,-0.777 3.506,-1.172 5.151,-1.172 3.287,0 6.027,1.203 8.145,3.576 2.096,2.348 3.159,5.303 3.159,8.782 0,2.593 -0.598,4.88 -1.779,6.797 -1.175,1.859 -3.191,3.902 -5.997,6.081 l -4.395,3.417 c -1.574,1.219 -2.742,2.392 -3.471,3.488 -0.695,1.023 -1.045,2.28 -1.045,3.741 0,1.614 0.427,2.825 1.307,3.703 0.879,0.878 1.876,1.304 3.049,1.304 1.563,0 3.191,-0.744 4.84,-2.212 1.667,-1.482 2.906,-4.192 3.685,-8.054 l 0.122,-0.602 h 0.613 1.197 0.815 l -0.067,0.811 -1.099,13.424 z m -0.69,-0.75 1.098,-13.424 h -1.197 c -0.815,4.043 -2.121,6.866 -3.921,8.467 -1.8,1.601 -3.579,2.401 -5.339,2.401 -1.368,0 -2.561,-0.507 -3.579,-1.524 -1.018,-1.016 -1.527,-2.427 -1.527,-4.233 0,-1.622 0.39,-3.007 1.171,-4.157 0.779,-1.17 1.992,-2.391 3.635,-3.664 l 4.395,-3.418 c 2.75,-2.135 4.689,-4.094 5.818,-5.881 1.113,-1.806 1.668,-3.941 1.668,-6.404 0,-3.305 -0.989,-6.065 -2.969,-8.282 -1.978,-2.217 -4.507,-3.326 -7.585,-3.326 -1.548,0 -3.165,0.37 -4.85,1.109 -1.687,0.739 -2.651,1.108 -2.896,1.108 -0.586,0 -0.981,-0.226 -1.185,-0.677 -0.203,-0.452 -0.338,-0.934 -0.402,-1.447 h -1.1 l -1.49,13.424 h 1.148 c 0.845,-2.832 1.837,-5.091 2.976,-6.774 1.984,-2.935 4.448,-4.402 7.392,-4.402 1.594,0 2.972,0.635 4.135,1.908 1.163,1.273 1.744,3.049 1.744,5.327 0,2.053 -0.585,3.838 -1.755,5.358 -0.764,0.964 -2.374,2.411 -4.829,4.341 l -4.267,3.356 c -1.285,1.026 -2.31,2.063 -3.076,3.11 -1.417,1.991 -2.125,4.187 -2.125,6.589 0,3.181 0.839,5.829 2.517,7.944 1.677,2.114 3.9,3.171 6.67,3.171 1.14,0 2.513,-0.354 4.117,-1.062 1.604,-0.709 2.521,-1.063 2.748,-1.063 0.619,0 1.047,0.186 1.283,0.555 0.236,0.369 0.419,0.893 0.55,1.57 h 1.027"
             style="fill:#4f4c4d;fill-opacity:1;fill-rule:nonzero;stroke:none"
             id="path268" />
        </g>
        <g
           id="g270"
           transform="translate(372.6064,158.5322)">
          <path
             d="M 0,0 V 1.495 L 0.339,1.528 C 2.042,1.692 2.56,2.059 2.718,2.263 2.883,2.477 3.16,3.172 3.16,5.424 V 26.069 H 1.662 c -1.733,0 -2.913,-0.301 -3.505,-0.896 -0.606,-0.609 -1.078,-2.016 -1.401,-4.183 l -0.048,-0.32 h -1.523 l 0.216,7.893 H 14.993 L 15.19,20.67 h -1.497 l -0.053,0.311 c -0.377,2.164 -0.848,3.576 -1.402,4.198 -0.525,0.591 -1.711,0.89 -3.523,0.89 H 7.233 V 4.932 C 7.233,2.957 7.539,2.366 7.722,2.19 7.952,1.967 8.56,1.67 10.134,1.528 l 0.341,-0.03 V 0 Z"
             style="fill:#ffffff;fill-opacity:1;fill-rule:nonzero;stroke:none"
             id="path272" />
        </g>
        <g
           id="g274"
           transform="translate(387.9658,187.4707)">
          <path
             d="m 0,0 h -0.731 -18.863 -0.729 l -0.02,-0.729 -0.195,-7.144 -0.022,-0.77 h 0.771 0.814 0.647 l 0.095,0.639 c 0.388,2.599 0.92,3.595 1.296,3.974 0.358,0.358 1.209,0.785 3.24,0.785 h 1.123 v -20.269 c 0,-2.342 -0.304,-2.854 -0.364,-2.933 -0.054,-0.069 -0.41,-0.425 -2.119,-0.59 l -0.677,-0.066 v -0.681 -0.779 -0.75 h 0.75 9.724 0.75 v 0.75 0.779 0.686 l -0.682,0.061 c -1.645,0.149 -2.088,0.465 -2.186,0.558 -0.037,0.037 -0.373,0.421 -0.373,2.473 v 20.761 h 1.106 c 2.23,0 2.99,-0.479 3.244,-0.764 0.347,-0.391 0.857,-1.405 1.312,-4.012 l 0.108,-0.622 h 0.63 0.798 0.769 l -0.019,0.768 -0.178,7.144 z m -0.731,-0.75 0.178,-7.143 h -0.798 c -0.39,2.244 -0.887,3.705 -1.49,4.382 -0.602,0.678 -1.871,1.016 -3.804,1.016 h -1.856 v -21.511 c 0,-1.62 0.201,-2.624 0.603,-3.012 0.401,-0.388 1.281,-0.643 2.638,-0.766 v -0.779 h -9.724 v 0.779 c 1.412,0.137 2.292,0.43 2.639,0.879 0.347,0.449 0.521,1.58 0.521,3.391 v 21.019 h -1.873 c -1.846,0 -3.103,-0.335 -3.771,-1.005 -0.668,-0.671 -1.17,-2.135 -1.507,-4.393 h -0.814 l 0.195,7.143 h 18.863"
             style="fill:#4f4c4d;fill-opacity:1;fill-rule:nonzero;stroke:none"
             id="path276" />
        </g>
        <g
           id="g278"
           transform="translate(388.0977,158.5322)">
          <path
             d="M 0,0 V 1.483 L 0.325,1.526 C 1.736,1.715 2.279,2.018 2.487,2.239 2.653,2.415 2.932,3 2.932,4.932 v 18.7 c 0,1.741 -0.249,2.426 -0.458,2.694 -0.199,0.255 -0.731,0.585 -2.132,0.709 L 0,27.065 v 1.498 h 18.465 l 0.129,-6.764 h -1.553 l -0.049,0.319 c -0.334,2.193 -0.814,3.05 -1.16,3.382 -0.336,0.325 -1.22,0.712 -3.518,0.712 H 7.772 C 7.285,26.212 7.191,26.104 7.191,26.103 7.154,26.04 7.069,25.821 7.069,25.171 v -9.005 h 4.773 c 1.607,0 2.201,0.35 2.418,0.643 0.242,0.329 0.591,1.127 0.876,3.06 l 0.048,0.32 h 1.479 V 9.729 h -1.477 l -0.049,0.318 c -0.299,1.944 -0.651,2.741 -0.893,3.067 -0.216,0.291 -0.808,0.639 -2.402,0.639 H 7.069 V 3.721 C 7.069,3.27 7.135,2.709 7.449,2.596 7.66,2.52 8.414,2.392 11.083,2.392 c 2.185,0 3.806,0.297 4.819,0.884 0.994,0.574 1.914,2.03 2.737,4.328 l 0.09,0.248 h 1.656 L 18.709,0 Z"
             style="fill:#ffffff;fill-opacity:1;fill-rule:nonzero;stroke:none"
             id="path280" />
        </g>
        <g
           id="g282"
           transform="translate(406.9297,187.4707)">
          <path
             d="m 0,0 h -0.735 -17.722 -0.75 v -0.75 -0.78 -0.686 l 0.684,-0.061 c 1.422,-0.126 1.791,-0.466 1.87,-0.567 0.088,-0.113 0.378,-0.627 0.378,-2.463 v -18.699 c 0,-2.015 -0.308,-2.4 -0.342,-2.437 -0.086,-0.091 -0.478,-0.402 -1.94,-0.597 l -0.65,-0.087 v -0.657 -0.779 -0.75 h 0.75 18.031 0.608 l 0.126,0.593 1.514,7.102 0.194,0.907 H 1.089 0.16 -0.368 l -0.178,-0.497 c -0.986,-2.755 -1.942,-3.767 -2.571,-4.13 -0.955,-0.553 -2.514,-0.833 -4.632,-0.833 -2.784,0 -3.388,0.139 -3.507,0.181 0.003,10e-4 -0.132,0.151 -0.132,0.772 v 9.657 h 4.398 c 1.614,0 2.017,-0.373 2.101,-0.487 0.178,-0.239 0.521,-0.934 0.823,-2.9 l 0.097,-0.636 h 0.644 0.781 0.75 v 0.75 9.709 0.75 h -0.75 -0.781 -0.648 l -0.094,-0.64 c -0.288,-1.955 -0.63,-2.651 -0.807,-2.892 -0.085,-0.115 -0.488,-0.491 -2.116,-0.491 h -4.398 v 8.631 c 0,0.344 0.026,0.541 0.047,0.647 0.059,0.01 0.15,0.019 0.281,0.019 h 4.542 c 2.373,0 3.069,-0.424 3.258,-0.607 0.248,-0.239 0.715,-0.97 1.05,-3.169 l 0.097,-0.637 h 0.644 0.848 0.764 L 0.129,-6.75 0.015,-0.736 Z m -0.735,-0.75 0.114,-6.014 h -0.848 c -0.282,1.852 -0.706,3.051 -1.27,3.596 -0.565,0.544 -1.824,0.817 -3.779,0.817 h -4.542 c -0.49,0 -0.792,-0.099 -0.906,-0.297 -0.114,-0.199 -0.172,-0.572 -0.172,-1.119 v -9.381 h 5.148 c 1.423,0 2.329,0.265 2.719,0.796 0.392,0.532 0.707,1.607 0.946,3.227 h 0.781 v -9.709 h -0.781 c -0.25,1.628 -0.571,2.706 -0.961,3.233 -0.392,0.527 -1.293,0.79 -2.704,0.79 h -5.148 v -10.407 c 0,-0.834 0.209,-1.327 0.628,-1.477 0.419,-0.151 1.672,-0.226 3.761,-0.226 2.262,0 3.931,0.311 5.008,0.934 1.076,0.622 2.044,2.131 2.901,4.526 h 0.929 l -1.515,-7.102 h -18.031 v 0.779 c 1.227,0.164 2.021,0.439 2.386,0.827 0.364,0.388 0.546,1.372 0.546,2.951 v 18.699 c 0,1.492 -0.18,2.467 -0.538,2.925 -0.358,0.459 -1.157,0.742 -2.394,0.852 v 0.78 h 17.722"
             style="fill:#4f4c4d;fill-opacity:1;fill-rule:nonzero;stroke:none"
             id="path284" />
        </g>
        <g
           id="g286"
           transform="translate(408.4746,158.5322)">
          <path
             d="M 0,0 V 1.483 L 0.325,1.526 C 1.736,1.715 2.279,2.018 2.487,2.239 2.653,2.415 2.932,3 2.932,4.932 v 18.7 c 0,1.741 -0.249,2.426 -0.458,2.694 -0.199,0.255 -0.731,0.585 -2.132,0.709 L 0,27.065 v 1.498 H 10.164 V 27.058 L 9.814,27.035 C 8.41,26.94 7.829,26.63 7.588,26.386 7.352,26.146 7.069,25.522 7.069,23.919 V 3.721 C 7.069,3.313 7.121,2.997 7.222,2.782 7.29,2.635 7.473,2.537 7.766,2.49 8.004,2.451 8.253,2.425 8.516,2.412 c 0.273,-0.014 0.787,-0.02 1.538,-0.02 2.885,0 4.846,0.294 5.828,0.872 0.964,0.569 1.931,2.094 2.874,4.533 l 0.092,0.24 h 1.574 L 18.623,0 Z"
             style="fill:#ffffff;fill-opacity:1;fill-rule:nonzero;stroke:none"
             id="path288" />
        </g>
        <g
           id="g290"
           transform="translate(419.0137,187.4707)">
          <path
             d="m 0,0 h -0.75 -9.414 -0.75 v -0.75 -0.78 -0.686 l 0.684,-0.061 c 1.422,-0.126 1.791,-0.466 1.87,-0.567 0.088,-0.113 0.378,-0.627 0.378,-2.463 v -18.699 c 0,-2.015 -0.308,-2.4 -0.342,-2.437 -0.086,-0.091 -0.478,-0.402 -1.94,-0.597 l -0.65,-0.087 v -0.657 -0.779 -0.75 h 0.75 17.947 0.601 l 0.132,0.586 1.63,7.287 0.205,0.914 H 9.414 8.566 8.053 l -0.186,-0.48 c -1.136,-2.937 -2.103,-3.984 -2.715,-4.346 -0.634,-0.374 -2.127,-0.819 -5.637,-0.819 -0.745,0 -1.257,0.006 -1.52,0.019 -0.248,0.012 -0.485,0.037 -0.706,0.073 -0.214,0.035 -0.271,0.089 -0.272,0.089 -0.038,0.085 -0.112,0.31 -0.112,0.772 V -5.02 c 0,1.658 0.316,2.106 0.411,2.204 0.129,0.13 0.58,0.444 1.984,0.538 L 0,-2.231 v 0.701 0.78 z M -0.75,-0.75 V -1.53 C -1.977,-1.612 -2.8,-1.865 -3.218,-2.29 -3.636,-2.714 -3.845,-3.624 -3.845,-5.02 v -20.198 c 0,-0.465 0.063,-0.831 0.188,-1.098 0.125,-0.267 0.399,-0.434 0.824,-0.503 0.25,-0.041 0.514,-0.068 0.791,-0.082 0.276,-0.014 0.796,-0.02 1.557,-0.02 2.968,0 4.974,0.308 6.018,0.923 1.043,0.616 2.055,2.19 3.033,4.722 h 0.848 l -1.631,-7.287 h -17.947 v 0.779 c 1.226,0.164 2.021,0.439 2.386,0.827 0.364,0.388 0.546,1.372 0.546,2.951 v 18.699 c 0,1.492 -0.18,2.467 -0.538,2.925 -0.358,0.459 -1.157,0.742 -2.394,0.852 v 0.78 h 9.414"
             style="fill:#4f4c4d;fill-opacity:1;fill-rule:nonzero;stroke:none"
             id="path292" />
        </g>
        <g
           id="g294"
           transform="translate(428.8516,158.5322)">
          <path
             d="M 0,0 V 1.483 L 0.325,1.526 C 1.736,1.715 2.279,2.018 2.487,2.239 2.653,2.415 2.932,3 2.932,4.932 v 18.7 c 0,1.741 -0.249,2.426 -0.458,2.694 -0.199,0.255 -0.731,0.585 -2.132,0.709 L 0,27.065 v 1.498 H 10.164 V 27.058 L 9.814,27.035 C 8.41,26.94 7.829,26.63 7.588,26.386 7.352,26.146 7.069,25.522 7.069,23.919 V 3.721 C 7.069,3.313 7.121,2.997 7.222,2.782 7.29,2.635 7.473,2.537 7.766,2.49 8.004,2.451 8.253,2.425 8.516,2.412 c 0.273,-0.014 0.787,-0.02 1.538,-0.02 2.885,0 4.846,0.294 5.828,0.872 0.964,0.569 1.931,2.094 2.874,4.533 l 0.092,0.24 h 1.574 L 18.623,0 Z"
             style="fill:#ffffff;fill-opacity:1;fill-rule:nonzero;stroke:none"
             id="path296" />
        </g>
        <g
           id="g298"
           transform="translate(439.3906,187.4707)">
          <path
             d="m 0,0 h -0.75 -9.414 -0.75 v -0.75 -0.78 -0.686 l 0.684,-0.061 c 1.422,-0.126 1.791,-0.466 1.87,-0.567 0.088,-0.113 0.378,-0.627 0.378,-2.463 v -18.699 c 0,-2.015 -0.308,-2.4 -0.342,-2.437 -0.086,-0.091 -0.478,-0.402 -1.94,-0.597 l -0.65,-0.087 v -0.657 -0.779 -0.75 h 0.75 17.947 0.601 l 0.132,0.586 1.63,7.287 0.205,0.914 H 9.414 8.566 8.053 l -0.186,-0.48 c -1.136,-2.937 -2.103,-3.984 -2.715,-4.346 -0.634,-0.374 -2.127,-0.819 -5.637,-0.819 -0.745,0 -1.257,0.006 -1.52,0.019 -0.248,0.012 -0.485,0.037 -0.706,0.073 -0.214,0.035 -0.271,0.089 -0.272,0.089 -0.038,0.085 -0.112,0.31 -0.112,0.772 V -5.02 c 0,1.658 0.316,2.106 0.411,2.204 0.129,0.13 0.58,0.444 1.984,0.538 L 0,-2.231 v 0.701 0.78 z M -0.75,-0.75 V -1.53 C -1.977,-1.612 -2.8,-1.865 -3.218,-2.29 -3.636,-2.714 -3.845,-3.624 -3.845,-5.02 v -20.198 c 0,-0.465 0.063,-0.831 0.188,-1.098 0.125,-0.267 0.399,-0.434 0.824,-0.503 0.25,-0.041 0.514,-0.068 0.791,-0.082 0.276,-0.014 0.796,-0.02 1.557,-0.02 2.968,0 4.974,0.308 6.018,0.923 1.043,0.616 2.055,2.19 3.033,4.722 h 0.848 l -1.631,-7.287 h -17.947 v 0.779 c 1.226,0.164 2.021,0.439 2.386,0.827 0.364,0.388 0.546,1.372 0.546,2.951 v 18.699 c 0,1.492 -0.18,2.467 -0.538,2.925 -0.358,0.459 -1.157,0.742 -2.394,0.852 v 0.78 h 9.414"
             style="fill:#4f4c4d;fill-opacity:1;fill-rule:nonzero;stroke:none"
             id="path300" />
        </g>
        <g
           id="g302"
           transform="translate(449.2285,158.5322)">
          <path
             d="M 0,0 V 1.483 L 0.325,1.526 C 1.736,1.715 2.279,2.018 2.487,2.239 2.653,2.415 2.932,3 2.932,4.932 v 18.7 c 0,1.741 -0.249,2.426 -0.458,2.694 -0.199,0.255 -0.731,0.585 -2.132,0.709 L 0,27.065 v 1.498 h 18.465 l 0.129,-6.764 h -1.553 l -0.049,0.319 c -0.334,2.193 -0.814,3.05 -1.16,3.382 -0.336,0.325 -1.22,0.712 -3.518,0.712 H 7.772 C 7.285,26.212 7.191,26.104 7.191,26.103 7.154,26.04 7.069,25.821 7.069,25.171 v -9.005 h 4.773 c 1.607,0 2.201,0.35 2.418,0.643 0.242,0.329 0.591,1.127 0.876,3.06 l 0.048,0.32 h 1.479 V 9.729 h -1.477 l -0.049,0.318 c -0.299,1.944 -0.651,2.741 -0.893,3.067 -0.216,0.291 -0.808,0.639 -2.402,0.639 H 7.069 V 3.721 C 7.069,3.27 7.135,2.709 7.449,2.596 7.66,2.52 8.414,2.392 11.083,2.392 c 2.185,0 3.806,0.297 4.819,0.884 0.994,0.574 1.914,2.03 2.737,4.328 l 0.09,0.248 h 1.656 L 18.709,0 Z"
             style="fill:#ffffff;fill-opacity:1;fill-rule:nonzero;stroke:none"
             id="path304" />
        </g>
        <g
           id="g306"
           transform="translate(468.0605,187.4707)">
          <path
             d="m 0,0 h -0.735 -17.722 -0.75 v -0.75 -0.78 -0.686 l 0.684,-0.061 c 1.422,-0.126 1.791,-0.466 1.87,-0.567 0.088,-0.113 0.378,-0.627 0.378,-2.463 v -18.699 c 0,-2.015 -0.308,-2.4 -0.342,-2.437 -0.086,-0.091 -0.478,-0.402 -1.94,-0.597 l -0.65,-0.087 v -0.657 -0.779 -0.75 h 0.75 18.031 0.608 l 0.126,0.593 1.514,7.102 0.194,0.907 H 1.089 0.16 -0.368 l -0.178,-0.497 c -0.986,-2.755 -1.942,-3.767 -2.571,-4.13 -0.955,-0.553 -2.514,-0.833 -4.632,-0.833 -2.784,0 -3.388,0.139 -3.507,0.181 0.003,10e-4 -0.132,0.151 -0.132,0.772 v 9.657 h 4.398 c 1.614,0 2.017,-0.373 2.101,-0.487 0.178,-0.239 0.521,-0.934 0.823,-2.9 l 0.097,-0.636 h 0.644 0.781 0.75 v 0.75 9.709 0.75 h -0.75 -0.781 -0.648 l -0.094,-0.64 c -0.288,-1.955 -0.63,-2.651 -0.807,-2.892 -0.085,-0.115 -0.488,-0.491 -2.116,-0.491 h -4.398 v 8.631 c 0,0.344 0.026,0.541 0.047,0.647 0.059,0.01 0.15,0.019 0.281,0.019 h 4.542 c 2.373,0 3.069,-0.424 3.258,-0.607 0.248,-0.239 0.715,-0.97 1.05,-3.169 l 0.097,-0.637 h 0.644 0.848 0.764 L 0.129,-6.75 0.015,-0.736 Z m -0.735,-0.75 0.114,-6.014 h -0.848 c -0.282,1.852 -0.706,3.051 -1.27,3.596 -0.565,0.544 -1.824,0.817 -3.779,0.817 h -4.542 c -0.49,0 -0.792,-0.099 -0.906,-0.297 -0.114,-0.199 -0.172,-0.572 -0.172,-1.119 v -9.381 h 5.148 c 1.423,0 2.329,0.265 2.719,0.796 0.392,0.532 0.707,1.607 0.946,3.227 h 0.781 v -9.709 h -0.781 c -0.25,1.628 -0.571,2.706 -0.961,3.233 -0.392,0.527 -1.293,0.79 -2.704,0.79 h -5.148 v -10.407 c 0,-0.834 0.209,-1.327 0.628,-1.477 0.419,-0.151 1.672,-0.226 3.761,-0.226 2.262,0 3.931,0.311 5.008,0.934 1.076,0.622 2.044,2.131 2.901,4.526 h 0.929 l -1.515,-7.102 h -18.031 v 0.779 c 1.227,0.164 2.021,0.439 2.386,0.827 0.364,0.388 0.546,1.372 0.546,2.951 v 18.699 c 0,1.492 -0.18,2.467 -0.538,2.925 -0.358,0.459 -1.157,0.742 -2.394,0.852 v 0.78 h 17.722"
             style="fill:#4f4c4d;fill-opacity:1;fill-rule:nonzero;stroke:none"
             id="path308" />
        </g>
        <g
           id="g310"
           transform="translate(310.1953,74.2266)">
          <path
             d="m 0,0 v 16.543 c 0,0 -1.082,3.816 -4.691,4.164 -3.612,0.348 -4.914,-3.554 -4.914,-3.554 V -0.055 Z"
             style="fill:#ffffff;fill-opacity:1;fill-rule:nonzero;stroke:none"
             id="path312" />
        </g>
        <g
           id="g314"
           transform="translate(303.2822,94.5596)">
          <path
             d="M 0,0 C 0.616,0.295 1.353,0.458 2.222,0.374 5.831,0.026 6.913,-3.79 6.913,-3.79 v -16.543 l -1.218,-0.034 v 16.265 c 0,0 -0.629,3.817 -4.238,4.165 -0.629,0.06 -1.187,-0.122 -1.682,-0.276 z"
             style="fill:#656263;fill-opacity:1;fill-rule:nonzero;stroke:none"
             id="path316" />
        </g>
        <g
           id="g318"
           transform="translate(303.2822,94.5596)">
          <path
             d="M 0,0 C 0.616,0.295 1.353,0.458 2.222,0.374 5.831,0.026 6.913,-3.79 6.913,-3.79 v -16.543 l -1.218,-0.034 v 16.265 c 0,0 -0.629,3.817 -4.238,4.165 -0.629,0.06 -1.187,-0.122 -1.682,-0.276 z"
             style="fill:none;stroke:#656263;stroke-width:0.75;stroke-linecap:butt;stroke-linejoin:miter;stroke-miterlimit:10;stroke-dasharray:none;stroke-opacity:1"
             id="path320" />
        </g>
        <g
           id="g322"
           transform="translate(310.1953,74.2266)">
          <path
             d="m 0,0 v 16.543 c 0,0 -1.082,3.816 -4.691,4.164 -3.612,0.348 -4.914,-3.554 -4.914,-3.554 V -0.055 Z"
             style="fill:none;stroke:#2c3792;stroke-width:0.75;stroke-linecap:butt;stroke-linejoin:miter;stroke-miterlimit:10;stroke-dasharray:none;stroke-opacity:1"
             id="path324" />
        </g>
        <g
           id="g326"
           transform="translate(323.3203,74.376)">
          <path
             d="m 0,0 v 15.139 c 0,0 -1.082,3.816 -4.691,4.164 -3.612,0.347 -4.914,-3.554 -4.914,-3.554 V 0 Z"
             style="fill:#ffffff;fill-opacity:1;fill-rule:nonzero;stroke:none"
             id="path328" />
        </g>
        <g
           id="g330"
           transform="translate(323.3203,74.376)">
          <path
             d="m 0,0 v 15.139 c 0,0 -1.082,3.816 -4.691,4.164 -3.612,0.347 -4.914,-3.554 -4.914,-3.554 V 0 Z"
             style="fill:none;stroke:#2c3792;stroke-width:0.75;stroke-linecap:butt;stroke-linejoin:miter;stroke-miterlimit:10;stroke-dasharray:none;stroke-opacity:1"
             id="path332" />
        </g>
        <g
           id="g334"
           transform="translate(336.6504,74.2559)">
          <path
             d="m 0,0 v 13.945 c 0,0 -1.082,3.817 -4.693,4.164 -3.61,0.348 -4.912,-3.553 -4.912,-3.553 V -0.106 Z"
             style="fill:#ffffff;fill-opacity:1;fill-rule:nonzero;stroke:none"
             id="path336" />
        </g>
        <g
           id="g338"
           transform="translate(336.6504,74.2559)">
          <path
             d="m 0,0 v 13.945 c 0,0 -1.082,3.817 -4.693,4.164 -3.61,0.348 -4.912,-3.553 -4.912,-3.553 V -0.106 Z"
             style="fill:none;stroke:#2c3792;stroke-width:0.75;stroke-linecap:butt;stroke-linejoin:miter;stroke-miterlimit:10;stroke-dasharray:none;stroke-opacity:1"
             id="path340" />
        </g>
        <g
           id="g342"
           transform="translate(316.3789,93.2539)">
          <path
             d="M 0,0 C 0.616,0.295 1.353,0.458 2.222,0.374 5.831,0.026 6.913,-3.79 6.913,-3.79 v -15.014 l -1.218,-0.034 v 14.736 c 0,0 -0.629,3.817 -4.238,4.165 -0.629,0.06 -1.187,-0.122 -1.682,-0.276 z"
             style="fill:#656263;fill-opacity:1;fill-rule:nonzero;stroke:none"
             id="path344" />
        </g>
        <g
           id="g346"
           transform="translate(316.3789,93.2539)">
          <path
             d="M 0,0 C 0.616,0.295 1.353,0.458 2.222,0.374 5.831,0.026 6.913,-3.79 6.913,-3.79 v -15.014 l -1.218,-0.034 v 14.736 c 0,0 -0.629,3.817 -4.238,4.165 -0.629,0.06 -1.187,-0.122 -1.682,-0.276 z"
             style="fill:none;stroke:#656263;stroke-width:0.75;stroke-linecap:butt;stroke-linejoin:miter;stroke-miterlimit:10;stroke-dasharray:none;stroke-opacity:1"
             id="path348" />
        </g>
        <g
           id="g350"
           transform="translate(329.7373,91.8047)">
          <path
             d="M 0,0 C 0.616,0.295 1.353,0.458 2.222,0.374 5.831,0.026 6.913,-3.79 6.913,-3.79 L 6.885,-17.444 5.667,-17.479 5.695,-4.102 c 0,0 -0.629,3.817 -4.238,4.165 -0.629,0.06 -1.187,-0.122 -1.682,-0.276 z"
             style="fill:#656263;fill-opacity:1;fill-rule:nonzero;stroke:none"
             id="path352" />
        </g>
        <g
           id="g354"
           transform="translate(329.7373,91.8047)">
          <path
             d="M 0,0 C 0.616,0.295 1.353,0.458 2.222,0.374 5.831,0.026 6.913,-3.79 6.913,-3.79 L 6.885,-17.444 5.667,-17.479 5.695,-4.102 c 0,0 -0.629,3.817 -4.238,4.165 -0.629,0.06 -1.187,-0.122 -1.682,-0.276 z"
             style="fill:none;stroke:#656263;stroke-width:0.75;stroke-linecap:butt;stroke-linejoin:miter;stroke-miterlimit:10;stroke-dasharray:none;stroke-opacity:1"
             id="path356" />
        </g>
        <g
           id="g358"
           transform="translate(323.3203,74.376)">
          <path
             d="m 0,0 v 15.139 c 0,0 -1.082,3.816 -4.691,4.164 -3.612,0.347 -4.914,-3.554 -4.914,-3.554 V 0 Z"
             style="fill:none;stroke:#2c3792;stroke-width:0.75;stroke-linecap:butt;stroke-linejoin:miter;stroke-miterlimit:10;stroke-dasharray:none;stroke-opacity:1"
             id="path360" />
        </g>
        <g
           id="g362"
           transform="translate(349.6338,74.1494)">
          <path
             d="m 0,0 v 12.683 c 0,0 -1.082,3.816 -4.693,4.164 -3.61,0.347 -4.912,-3.554 -4.912,-3.554 V 0 Z"
             style="fill:#ffffff;fill-opacity:1;fill-rule:nonzero;stroke:none"
             id="path364" />
        </g>
        <g
           id="g366"
           transform="translate(349.6338,74.1494)">
          <path
             d="m 0,0 v 12.683 c 0,0 -1.082,3.816 -4.693,4.164 -3.61,0.347 -4.912,-3.554 -4.912,-3.554 V 0 Z"
             style="fill:none;stroke:#2c3792;stroke-width:0.75;stroke-linecap:butt;stroke-linejoin:miter;stroke-miterlimit:10;stroke-dasharray:none;stroke-opacity:1"
             id="path368" />
        </g>
        <g
           id="g370"
           transform="translate(342.7402,90.6211)">
          <path
             d="M 0,0 C 0.616,0.295 1.353,0.458 2.222,0.374 5.831,0.026 6.913,-3.79 6.913,-3.79 L 6.885,-16.425 5.667,-16.459 5.695,-4.102 c 0,0 -0.629,3.817 -4.238,4.165 -0.629,0.06 -1.187,-0.122 -1.682,-0.276 z"
             style="fill:#656263;fill-opacity:1;fill-rule:nonzero;stroke:none"
             id="path372" />
        </g>
        <g
           id="g374"
           transform="translate(342.7402,90.6211)">
          <path
             d="M 0,0 C 0.616,0.295 1.353,0.458 2.222,0.374 5.831,0.026 6.913,-3.79 6.913,-3.79 L 6.885,-16.425 5.667,-16.459 5.695,-4.102 c 0,0 -0.629,3.817 -4.238,4.165 -0.629,0.06 -1.187,-0.122 -1.682,-0.276 z"
             style="fill:none;stroke:#656263;stroke-width:0.75;stroke-linecap:butt;stroke-linejoin:miter;stroke-miterlimit:10;stroke-dasharray:none;stroke-opacity:1"
             id="path376" />
        </g>
        <g
           id="g378"
           transform="translate(336.6504,74.2559)">
          <path
             d="m 0,0 v 13.945 c 0,0 -1.082,3.817 -4.693,4.164 -3.61,0.348 -4.912,-3.553 -4.912,-3.553 V -0.106 Z"
             style="fill:none;stroke:#2c3792;stroke-width:0.75;stroke-linecap:butt;stroke-linejoin:miter;stroke-miterlimit:10;stroke-dasharray:none;stroke-opacity:1"
             id="path380" />
        </g>
        <g
           id="g382"
           transform="translate(349.6338,74.1494)">
          <path
             d="m 0,0 v 12.683 c 0,0 -1.082,3.816 -4.693,4.164 -3.61,0.347 -4.912,-3.554 -4.912,-3.554 V 0 Z"
             style="fill:none;stroke:#2c3792;stroke-width:0.75;stroke-linecap:butt;stroke-linejoin:miter;stroke-miterlimit:10;stroke-dasharray:none;stroke-opacity:1"
             id="path384" />
        </g>
        <g
           id="g386"
           transform="translate(291.1377,74.0078)">
          <path
             d="M 0,0 65.717,0.153"
             style="fill:none;stroke:#2c3792;stroke-width:0.75;stroke-linecap:butt;stroke-linejoin:miter;stroke-miterlimit:10;stroke-dasharray:none;stroke-opacity:1"
             id="path388" />
        </g>
      </g>
    </g>
    <g
       id="g390">
      <g
         id="g392">
        <g
           id="g398">
          <g
             id="g400">
            <path
               d="m 254.696,144.746 v -8.233 l -10.522,0.152 v 7.776 l -5.335,3.659 -6.557,-5.032 v -12.96 l 5.184,-10.52 -4.422,-61.905 8.692,-7.166 10.521,-5.948 h 35.984 l 0.152,4.423 -4.116,71.511 4.879,10.673 v 12.197 l -5.946,4.879 -6.1,-4.27 v -7.165 l -10.673,-0.152 v 8.995 l -5.336,5.337 z"
               style="fill:url(#linearGradient418);stroke:none"
               id="path420" />
          </g>
        </g>
      </g>
    </g>
    <g
       id="g422">
      <g
         id="g424">
        <g
           id="g430">
          <g
             id="g432">
            <path
               d="m 232.282,134.63 v -4.522 l 5.184,-10.52 22.046,15.042 z"
               style="fill:url(#linearGradient446);stroke:none"
               id="path448" />
          </g>
        </g>
      </g>
    </g>
    <g
       id="g450">
      <g
         id="g452"
         clip-path="url(#clipPath456)">
        <g
           id="g458"
           transform="translate(233.0723,56.0967)">
          <path
             d="M 0,0 4.394,63.491 -0.79,74.012 v 12.96 l 6.557,5.031 5.336,-3.658 v -7.777 l 10.521,-0.152 v 8.233 l 6.404,6.251 5.336,-5.337 v -8.995 l 10.674,0.153 v 7.165 l 6.1,4.269 5.945,-4.879 V 75.079 L 51.204,64.406 55.321,-7.105 55.169,-11.527 H 19.185 L 8.663,-5.58 Z"
             style="fill:none;stroke:#2e3192;stroke-width:0.75;stroke-linecap:butt;stroke-linejoin:miter;stroke-miterlimit:4;stroke-dasharray:none;stroke-opacity:1"
             id="path460" />
        </g>
      </g>
    </g>
    <g
       id="g462">
      <g
         id="g464">
        <g
           id="g470">
          <g
             id="g472">
            <path
               d="m 273.178,48.239 c -18,0 -46,10.5 -46,10.5 v 0 c 0,0 21.5,-23 51.999,-23 v 0 c 30.499,0 61.323,22.267 95,22.267 v 0 c 20,0 44.499,-14.267 44.499,-14.267 v 0 c 0,0 -16.367,27.974 -45,28.484 v 0 c -0.297,0.006 -0.591,0.008 -0.89,0.008 v 0 C 344.256,72.229 306.474,48.239 273.178,48.239"
               style="fill:url(#linearGradient484);stroke:none"
               id="path486" />
          </g>
        </g>
      </g>
    </g>
    <g
       id="g488">
      <g
         id="g490"
         clip-path="url(#clipPath494)">
        <g
           id="g496"
           transform="translate(227.1777,58.7393)">
          <path
             d="m 0,0 c 0,0 28,-10.5 46,-10.5 33.645,0 71.867,24.495 100.499,23.984 28.632,-0.51 45,-28.484 45,-28.484 0,0 -24.5,14.267 -44.5,14.267 C 113.322,-0.733 82.499,-23 52,-23 21.5,-23 0,0 0,0 Z"
             style="fill:none;stroke:#2e3192;stroke-width:0.75;stroke-linecap:butt;stroke-linejoin:miter;stroke-miterlimit:4;stroke-dasharray:none;stroke-opacity:1"
             id="path498" />
        </g>
        <g
           id="g500"
           transform="translate(277.4023,270.6563)">
          <path
             d="m 0,0 2.597,-9.265 9.613,0.394 -8.009,-5.332 3.345,-9.022 -7.546,5.97 -7.546,-5.97 3.345,9.022 -8.009,5.332 9.613,-0.394 z"
             style="fill:#ffffff;fill-opacity:1;fill-rule:nonzero;stroke:none"
             id="path502" />
        </g>
        <g
           id="g504"
           transform="translate(277.4023,270.6563)">
          <path
             d="m 0,0 2.597,-9.265 9.613,0.394 -8.009,-5.332 3.345,-9.022 -7.546,5.97 -7.546,-5.97 3.345,9.022 -8.009,5.332 9.613,-0.394 z"
             style="fill:none;stroke:#2c3792;stroke-width:1;stroke-linecap:butt;stroke-linejoin:miter;stroke-miterlimit:10;stroke-dasharray:none;stroke-opacity:1"
             id="path506" />
        </g>
        <g
           id="g508"
           transform="translate(331.7793,270.6563)">
          <path
             d="m 0,0 2.597,-9.265 9.613,0.394 -8.009,-5.332 3.345,-9.022 -7.546,5.97 -7.545,-5.97 3.344,9.022 -8.008,5.332 9.613,-0.394 z"
             style="fill:#ffffff;fill-opacity:1;fill-rule:nonzero;stroke:none"
             id="path510" />
        </g>
        <g
           id="g512"
           transform="translate(331.7793,270.6563)">
          <path
             d="m 0,0 2.597,-9.265 9.613,0.394 -8.009,-5.332 3.345,-9.022 -7.546,5.97 -7.545,-5.97 3.344,9.022 -8.008,5.332 9.613,-0.394 z"
             style="fill:none;stroke:#2c3792;stroke-width:1;stroke-linecap:butt;stroke-linejoin:miter;stroke-miterlimit:10;stroke-dasharray:none;stroke-opacity:1"
             id="path514" />
        </g>
        <g
           id="g516"
           transform="translate(372.9971,254.1006)">
          <path
             d="m 0,0 2.597,-9.265 9.613,0.394 -8.009,-5.332 3.345,-9.022 -7.546,5.97 -7.545,-5.97 3.344,9.022 -8.008,5.332 9.613,-0.394 z"
             style="fill:#ffffff;fill-opacity:1;fill-rule:nonzero;stroke:none"
             id="path518" />
        </g>
        <g
           id="g520"
           transform="translate(372.9971,254.1006)">
          <path
             d="m 0,0 2.597,-9.265 9.613,0.394 -8.009,-5.332 3.345,-9.022 -7.546,5.97 -7.545,-5.97 3.344,9.022 -8.008,5.332 9.613,-0.394 z"
             style="fill:none;stroke:#2c3792;stroke-width:1;stroke-linecap:butt;stroke-linejoin:miter;stroke-miterlimit:10;stroke-dasharray:none;stroke-opacity:1"
             id="path522" />
        </g>
        <g
           id="g524"
           transform="translate(236.3193,254.1006)">
          <path
             d="m 0,0 2.596,-9.265 9.613,0.394 -8.008,-5.332 3.344,-9.022 -7.545,5.97 -7.545,-5.97 3.344,9.022 -8.008,5.332 9.613,-0.394 z"
             style="fill:#ffffff;fill-opacity:1;fill-rule:nonzero;stroke:none"
             id="path526" />
        </g>
        <g
           id="g528"
           transform="translate(236.3193,254.1006)">
          <path
             d="m 0,0 2.596,-9.265 9.613,0.394 -8.008,-5.332 3.344,-9.022 -7.545,5.97 -7.545,-5.97 3.344,9.022 -8.008,5.332 9.613,-0.394 z"
             style="fill:none;stroke:#2c3792;stroke-width:1;stroke-linecap:butt;stroke-linejoin:miter;stroke-miterlimit:10;stroke-dasharray:none;stroke-opacity:1"
             id="path530" />
        </g>
      </g>
    </g>
  </g>
</svg>
